<svg width="103" height="58" viewBox="0 0 103 58" fill="none" xmlns="http://www.w3.org/2000/svg">
<path d="M36.9009 0C37.8763 0.282755 38.7849 0.509507 39.6441 0.858203C42.9236 2.18913 45.1854 4.56561 46.2688 7.90487C47.8238 12.6979 46.7805 16.9972 43.1981 20.5358C41.9138 21.8043 40.3034 22.7457 38.8274 23.8166C36.655 25.3926 34.4696 26.9508 32.2972 28.5113C35.8288 31.0559 39.4564 33.509 42.8936 36.2047C45.067 37.9091 46.2444 40.3518 46.7302 43.11C47.2297 45.9457 46.7882 48.6085 45.3799 51.0966C43.6073 54.2286 40.9292 56.1538 37.3928 56.8445C33.412 57.622 29.9919 56.4325 26.7957 54.0372C21.8054 50.2975 16.708 46.7006 11.6495 43.0522C9.37175 41.4094 7.04909 39.8274 4.80001 38.1467C2.26103 36.2493 0.565462 33.7898 0.054694 30.5487C-0.0182313 29.2463 -0.0182313 27.9705 0.054694 26.5787C0.552279 23.3571 2.1102 20.8688 4.55615 19.0231C8.17586 16.2918 11.9108 13.7133 15.594 11.066C18.2497 9.15713 20.8877 7.22309 23.5589 5.33606C25.545 3.93296 27.5221 2.50499 29.6016 1.25129C30.613 0.64154 31.8496 0.405315 32.9842 0C34.26 0 35.5358 0 36.9009 0ZM11.2954 40.2896C17.2511 44.5699 23.2045 48.8535 29.1639 53.1287C31.4319 54.7558 33.9075 55.5012 36.7175 54.9358C41.0185 54.0703 44.3069 50.9033 44.7792 46.2945C45.1722 42.4596 43.7678 39.3089 40.5701 37.0169C32.983 31.579 25.4053 26.1281 17.8344 20.6678C15.3332 18.8639 12.5785 18.3275 9.58318 18.9006C5.71613 19.6404 2.1106 23.6819 1.89887 27.5759C1.69906 31.2507 3.07101 34.2485 6.00869 36.478C7.70273 37.7636 9.45321 38.9749 11.2954 40.2896ZM13.8389 14.9039C13.0934 15.4513 12.3479 15.9987 11.4109 16.6868C11.7995 16.7483 11.9144 16.7861 12.0276 16.7816C14.7532 16.6719 17.0841 17.6766 19.245 19.2499C22.942 21.9414 26.6681 24.593 30.3761 27.2571C30.4897 27.2023 30.5821 27.1732 30.6569 27.1196C34.1408 24.6198 37.6723 22.1829 41.0928 19.5991C44.9782 16.664 45.758 11.648 43.9064 7.57919C41.3057 1.86414 33.9701 0.441389 29.2714 3.81476C24.1627 7.48259 19.0593 11.1579 13.8389 14.9039Z" fill="#101011"/>
<path d="M69.9012 0C71.0143 0.353866 72.1353 0.546679 73.0419 1.09438C75.0676 2.3182 77.0175 3.67569 78.9428 5.05604C84.0366 8.70797 89.11 12.3886 94.1724 16.0841C96.0724 17.471 97.9986 18.8397 99.7688 20.382C101.55 21.9339 102.396 24.0873 102.791 26.3765C103.562 30.8401 102.183 34.6313 98.8228 37.5942C97.0695 39.1403 95.056 40.3926 93.151 41.765C89.3456 44.5066 85.5372 47.2441 81.7238 49.9745C79.0903 51.8602 76.4953 53.806 73.7872 55.5784C72.345 56.5223 70.6372 56.9331 68.8867 57.0413C66.6437 57.18 64.4683 56.9 62.4612 55.8559C58.9057 54.0064 56.6666 51.0454 56.1125 47.1221C55.3861 41.9783 57.3328 37.8831 61.6659 34.9142C64.6692 32.8564 67.5908 30.6795 70.59 28.5263C67.7373 26.4553 64.9711 24.3318 62.0849 22.3864C59.5606 20.6849 57.5218 18.6407 56.6062 15.6959C55.4061 11.8366 55.8288 8.15758 58.2185 4.82376C59.843 2.55739 62.007 1.01987 64.7459 0.352898C65.0752 0.272705 65.4097 0.213725 65.7678 0.0724566C67.1331 1.93296e-07 68.4725 1.90763e-07 69.9012 0ZM100.915 28.5186C100.913 25.3245 99.7097 22.6412 97.144 20.7692C89.2414 15.0034 81.2738 9.32678 73.33 3.61749C71.0593 1.98553 68.4376 1.70079 65.8557 2.21926C61.7807 3.0375 59.1388 5.68167 58.2541 9.72847C57.3804 13.7247 58.664 17.1351 61.9223 19.6847C63.4719 20.8973 65.1082 21.9993 66.707 23.149C72.9475 27.6364 79.1566 32.1684 85.4431 36.5905C88.6477 38.8448 92.1534 39.0441 95.6309 37.24C99.0418 35.4706 100.782 32.5546 100.915 28.5186ZM64.8744 54.6832C65.7343 54.8322 66.5911 55.0842 67.4548 55.1103C69.8343 55.1823 71.9683 54.4193 73.8966 53.0269C78.5163 49.691 83.1475 46.3711 87.7741 43.0448C88.8966 42.2377 90.0189 41.4305 91.3383 40.4817C88.8063 40.3089 86.614 39.7958 84.7072 38.4901C82.5141 36.9883 80.3737 35.4096 78.2123 33.8617C76.2886 32.4841 74.3674 31.1031 72.4594 29.7339C71.7362 30.2535 71.0948 30.7124 70.4553 31.1741C67.5275 33.2881 64.5581 35.3474 61.6842 37.5322C58.5459 39.9182 57.1555 44.419 58.3596 47.9807C59.4428 51.1847 61.5366 53.4379 64.8744 54.6832Z" fill="#10110F"/>
<path d="M11.2359 40.255C9.4523 38.9753 7.70182 37.7641 6.00778 36.4784C3.0701 34.249 1.69815 31.2511 1.89796 27.5763C2.10969 23.6823 5.71522 19.6409 9.58227 18.901C12.5776 18.3279 15.3323 18.8643 17.8335 20.6682C25.4044 26.1285 32.9821 31.5795 40.5692 37.0174C43.7669 39.3093 45.1713 42.46 44.7783 46.2949C44.306 50.9037 41.0176 54.0707 36.7166 54.9362C33.9066 55.5016 31.431 54.7562 29.163 53.1292C23.2036 48.854 17.2502 44.5703 11.2359 40.255Z" fill="#4285F3"/>
<path d="M13.8955 14.8672C19.0586 11.1582 24.162 7.48282 29.2707 3.81499C33.9694 0.441618 41.305 1.86436 43.9057 7.57942C45.7573 11.6482 44.9775 16.6643 41.0921 19.5993C37.6716 22.1831 34.1401 24.6201 30.6561 27.1198C30.5814 27.1735 30.489 27.2026 30.3754 27.2573C26.6674 24.5932 22.9413 21.9417 19.2443 19.2501C17.0834 17.6769 14.7525 16.6721 12.0268 16.7818C11.9137 16.7863 11.7988 16.7485 11.4102 16.687C12.3472 15.9989 13.0927 15.4515 13.8955 14.8672Z" fill="#E94335"/>
<path d="M100.916 28.6101C100.783 32.5551 99.0429 35.4711 95.632 37.2405C92.1545 39.0446 88.6488 38.8453 85.4442 36.5911C79.1577 32.169 72.9486 27.6369 66.7081 23.1495C65.1093 21.9999 63.473 20.8978 61.9234 19.6852C58.6651 17.1357 57.3815 13.7252 58.2552 9.72901C59.1399 5.68221 61.7818 3.03805 65.8568 2.2198C68.4388 1.70134 71.0604 1.98607 73.3311 3.61803C81.2749 9.32732 89.2425 15.0039 97.1451 20.7697C99.7108 22.6417 100.914 25.3251 100.916 28.6101Z" fill="#34A853"/>
<path d="M64.823 54.63C61.5409 53.438 59.4471 51.1847 58.3639 47.9807C57.1599 44.419 58.5502 39.9182 61.6886 37.5323C64.5625 35.3474 67.5319 33.2881 70.4596 31.1742C71.0991 30.7125 71.7405 30.2535 72.4637 29.7339C74.3717 31.1031 76.2929 32.4842 78.2166 33.8618C80.3781 35.4096 82.5184 36.9884 84.7115 38.4901C86.6184 39.7959 88.8107 40.309 91.3427 40.4818C90.0233 41.4305 88.9009 42.2377 87.7784 43.0448C83.1519 46.3712 78.5206 49.691 73.901 53.0269C71.9727 54.4193 69.8386 55.1824 67.4591 55.1104C66.5954 55.0842 65.7386 54.8322 64.823 54.63Z" fill="#F8AA00"/>
</svg>
