<svg width="367" height="30" viewBox="0 0 367 30" fill="none" xmlns="http://www.w3.org/2000/svg">
<path d="M11.1681 23.1677C9.61076 23.1677 8.14943 22.8797 6.78409 22.3037C5.44009 21.7063 4.25609 20.885 3.23209 19.8397C2.22943 18.7943 1.44009 17.5783 0.864094 16.1917C0.288094 14.805 9.38177e-05 13.3117 9.38177e-05 11.7117C9.38177e-05 10.1117 0.288094 8.62899 0.864094 7.26366C1.44009 5.87699 2.24009 4.66099 3.26409 3.61566C4.28809 2.57032 5.48276 1.75965 6.84809 1.18365C8.23476 0.607655 9.73876 0.319654 11.3601 0.319654C13.1308 0.319654 14.7628 0.660988 16.2561 1.34365C17.7494 2.02632 18.9974 3.00765 20.0001 4.28765L17.9201 6.36765C17.2161 5.34366 16.2881 4.56499 15.1361 4.03166C13.9841 3.47699 12.7254 3.19966 11.3601 3.19966C9.73876 3.19966 8.29876 3.56232 7.04009 4.28765C5.80276 5.01299 4.83209 6.01566 4.12809 7.29566C3.44543 8.57566 3.10409 10.0477 3.10409 11.7117C3.10409 13.397 3.45609 14.8797 4.16009 16.1597C4.86409 17.4397 5.81343 18.4423 7.00809 19.1677C8.20276 19.893 9.56809 20.2557 11.1041 20.2557C12.6614 20.2557 14.0054 19.957 15.1361 19.3597C16.2881 18.7623 17.1734 17.8877 17.7921 16.7357C18.4108 15.5623 18.7201 14.133 18.7201 12.4477L20.5441 13.7597H10.9441V11.0077H21.8241V11.4557C21.8241 14.037 21.3654 16.2023 20.4481 17.9517C19.5521 19.6797 18.2934 20.981 16.6721 21.8557C15.0721 22.7303 13.2374 23.1677 11.1681 23.1677ZM32.3021 23.1677C30.8088 23.1677 29.4648 22.8157 28.2701 22.1117C27.0754 21.4077 26.1261 20.4583 25.4221 19.2637C24.7181 18.0477 24.3661 16.693 24.3661 15.1997C24.3661 13.7277 24.7181 12.405 25.4221 11.2317C26.1261 10.037 27.0754 9.08766 28.2701 8.38366C29.4648 7.67966 30.8088 7.32766 32.3021 7.32766C33.7741 7.32766 35.1074 7.67966 36.3021 8.38366C37.5181 9.06632 38.4781 10.005 39.1821 11.1997C39.8861 12.3943 40.2381 13.7277 40.2381 15.1997C40.2381 16.693 39.8861 18.0477 39.1821 19.2637C38.4781 20.4583 37.5181 21.4077 36.3021 22.1117C35.1074 22.8157 33.7741 23.1677 32.3021 23.1677ZM32.3021 20.3837C33.2621 20.3837 34.1154 20.1597 34.8621 19.7117C35.6088 19.2637 36.1954 18.6557 36.6221 17.8877C37.0488 17.0983 37.2621 16.2023 37.2621 15.1997C37.2621 14.2183 37.0381 13.3437 36.5901 12.5757C36.1634 11.8077 35.5768 11.2103 34.8301 10.7837C34.1048 10.3357 33.2621 10.1117 32.3021 10.1117C31.3421 10.1117 30.4888 10.3357 29.7421 10.7837C28.9954 11.2103 28.4088 11.8077 27.9821 12.5757C27.5554 13.3437 27.3421 14.2183 27.3421 15.1997C27.3421 16.2023 27.5554 17.0983 27.9821 17.8877C28.4088 18.6557 28.9954 19.2637 29.7421 19.7117C30.4888 20.1597 31.3421 20.3837 32.3021 20.3837ZM50.4271 23.1677C48.9338 23.1677 47.5898 22.8157 46.3951 22.1117C45.2004 21.4077 44.2511 20.4583 43.5471 19.2637C42.8431 18.0477 42.4911 16.693 42.4911 15.1997C42.4911 13.7277 42.8431 12.405 43.5471 11.2317C44.2511 10.037 45.2004 9.08766 46.3951 8.38366C47.5898 7.67966 48.9338 7.32766 50.4271 7.32766C51.8991 7.32766 53.2324 7.67966 54.4271 8.38366C55.6431 9.06632 56.6031 10.005 57.3071 11.1997C58.0111 12.3943 58.3631 13.7277 58.3631 15.1997C58.3631 16.693 58.0111 18.0477 57.3071 19.2637C56.6031 20.4583 55.6431 21.4077 54.4271 22.1117C53.2324 22.8157 51.8991 23.1677 50.4271 23.1677ZM50.4271 20.3837C51.3871 20.3837 52.2404 20.1597 52.9871 19.7117C53.7338 19.2637 54.3204 18.6557 54.7471 17.8877C55.1738 17.0983 55.3871 16.2023 55.3871 15.1997C55.3871 14.2183 55.1631 13.3437 54.7151 12.5757C54.2884 11.8077 53.7018 11.2103 52.9551 10.7837C52.2298 10.3357 51.3871 10.1117 50.4271 10.1117C49.4671 10.1117 48.6138 10.3357 47.8671 10.7837C47.1204 11.2103 46.5338 11.8077 46.1071 12.5757C45.6804 13.3437 45.4671 14.2183 45.4671 15.1997C45.4671 16.2023 45.6804 17.0983 46.1071 17.8877C46.5338 18.6557 47.1204 19.2637 47.8671 19.7117C48.6138 20.1597 49.4671 20.3837 50.4271 20.3837ZM67.9121 29.5357C66.3548 29.5357 64.9681 29.2477 63.7521 28.6717C62.5574 28.0957 61.5974 27.285 60.8721 26.2397L62.7281 24.3517C63.3468 25.141 64.0828 25.7383 64.9361 26.1437C65.7894 26.5703 66.8028 26.7837 67.9761 26.7837C69.5334 26.7837 70.7601 26.3677 71.6561 25.5357C72.5734 24.725 73.0321 23.6263 73.0321 22.2397V18.4637L73.5441 15.0397L73.0321 11.6477V7.64766H75.9121V22.2397C75.9121 23.6903 75.5708 24.9597 74.8881 26.0477C74.2268 27.1357 73.2881 27.989 72.0721 28.6077C70.8774 29.2263 69.4908 29.5357 67.9121 29.5357ZM67.9121 22.5917C66.5254 22.5917 65.2774 22.261 64.1681 21.5997C63.0801 20.9383 62.2161 20.0317 61.5761 18.8797C60.9361 17.7063 60.6161 16.3943 60.6161 14.9437C60.6161 13.493 60.9361 12.2023 61.5761 11.0717C62.2161 9.91966 63.0801 9.01299 64.1681 8.35166C65.2774 7.66899 66.5254 7.32766 67.9121 7.32766C69.1068 7.32766 70.1628 7.56232 71.0801 8.03166C71.9974 8.50099 72.7228 9.16232 73.2561 10.0157C73.8108 10.8477 74.1094 11.829 74.1521 12.9597V16.9917C74.0881 18.101 73.7788 19.0823 73.2241 19.9357C72.6908 20.7677 71.9654 21.4183 71.0481 21.8877C70.1308 22.357 69.0854 22.5917 67.9121 22.5917ZM68.4881 19.8717C69.4268 19.8717 70.2481 19.669 70.9521 19.2637C71.6774 18.8583 72.2321 18.293 72.6161 17.5677C73.0001 16.821 73.1921 15.957 73.1921 14.9757C73.1921 13.9943 72.9894 13.141 72.5841 12.4157C72.2001 11.669 71.6561 11.093 70.9521 10.6877C70.2481 10.261 69.4161 10.0477 68.4561 10.0477C67.4961 10.0477 66.6534 10.261 65.9281 10.6877C65.2028 11.093 64.6268 11.669 64.2001 12.4157C63.7948 13.141 63.5921 13.9837 63.5921 14.9437C63.5921 15.9037 63.7948 16.757 64.2001 17.5037C64.6268 18.2503 65.2028 18.837 65.9281 19.2637C66.6748 19.669 67.5281 19.8717 68.4881 19.8717ZM80.1393 22.8477V-0.00034523H83.0193V22.8477H80.1393ZM94.2731 23.1677C92.7584 23.1677 91.3931 22.8263 90.1771 22.1437C88.9611 21.4397 88.0011 20.4903 87.2971 19.2957C86.5931 18.101 86.2411 16.7463 86.2411 15.2317C86.2411 13.7383 86.5824 12.3943 87.2651 11.1997C87.9691 10.005 88.9078 9.06632 90.0811 8.38366C91.2758 7.67966 92.6091 7.32766 94.0811 7.32766C95.4891 7.32766 96.7264 7.64766 97.7931 8.28766C98.8811 8.92766 99.7238 9.81299 100.321 10.9437C100.94 12.0743 101.249 13.3543 101.249 14.7837C101.249 14.997 101.238 15.2317 101.217 15.4877C101.196 15.7223 101.153 15.9997 101.089 16.3197H88.2571V13.9197H99.5531L98.4971 14.8477C98.4971 13.8237 98.3158 12.9597 97.9531 12.2557C97.5904 11.5303 97.0784 10.9757 96.4171 10.5917C95.7558 10.1863 94.9558 9.98366 94.0171 9.98366C93.0358 9.98366 92.1718 10.197 91.4251 10.6237C90.6784 11.0503 90.1024 11.6477 89.6971 12.4157C89.2918 13.1837 89.0891 14.0903 89.0891 15.1357C89.0891 16.2023 89.3024 17.141 89.7291 17.9517C90.1558 18.741 90.7638 19.3597 91.5531 19.8077C92.3424 20.2343 93.2491 20.4477 94.2731 20.4477C95.1264 20.4477 95.9051 20.2983 96.6091 19.9997C97.3344 19.701 97.9531 19.253 98.4651 18.6557L100.321 20.5437C99.5958 21.397 98.6998 22.0477 97.6331 22.4957C96.5878 22.9437 95.4678 23.1677 94.2731 23.1677ZM113.542 22.8477V20.0957H119.718C121.36 20.0957 122.8 19.7437 124.038 19.0397C125.275 18.3143 126.235 17.3223 126.918 16.0637C127.622 14.805 127.974 13.3543 127.974 11.7117C127.974 10.0903 127.622 8.65032 126.918 7.39166C126.214 6.13299 125.243 5.15165 124.006 4.44765C122.768 3.74365 121.339 3.39165 119.718 3.39165H113.574V0.639656H119.782C121.403 0.639656 122.896 0.916989 124.262 1.47165C125.648 2.02632 126.843 2.80499 127.846 3.80766C128.87 4.81032 129.659 5.98366 130.214 7.32766C130.79 8.67166 131.078 10.1437 131.078 11.7437C131.078 13.3223 130.79 14.7943 130.214 16.1597C129.659 17.5037 128.88 18.677 127.878 19.6797C126.875 20.6823 125.68 21.461 124.294 22.0157C122.928 22.5703 121.446 22.8477 119.846 22.8477H113.542ZM111.558 22.8477V0.639656H114.566V22.8477H111.558ZM141.773 23.1677C140.258 23.1677 138.893 22.8263 137.677 22.1437C136.461 21.4397 135.501 20.4903 134.797 19.2957C134.093 18.101 133.741 16.7463 133.741 15.2317C133.741 13.7383 134.082 12.3943 134.765 11.1997C135.469 10.005 136.408 9.06632 137.581 8.38366C138.776 7.67966 140.109 7.32766 141.581 7.32766C142.989 7.32766 144.226 7.64766 145.293 8.28766C146.381 8.92766 147.224 9.81299 147.821 10.9437C148.44 12.0743 148.749 13.3543 148.749 14.7837C148.749 14.997 148.738 15.2317 148.717 15.4877C148.696 15.7223 148.653 15.9997 148.589 16.3197H135.757V13.9197H147.053L145.997 14.8477C145.997 13.8237 145.816 12.9597 145.453 12.2557C145.09 11.5303 144.578 10.9757 143.917 10.5917C143.256 10.1863 142.456 9.98366 141.517 9.98366C140.536 9.98366 139.672 10.197 138.925 10.6237C138.178 11.0503 137.602 11.6477 137.197 12.4157C136.792 13.1837 136.589 14.0903 136.589 15.1357C136.589 16.2023 136.802 17.141 137.229 17.9517C137.656 18.741 138.264 19.3597 139.053 19.8077C139.842 20.2343 140.749 20.4477 141.773 20.4477C142.626 20.4477 143.405 20.2983 144.109 19.9997C144.834 19.701 145.453 19.253 145.965 18.6557L147.821 20.5437C147.096 21.397 146.2 22.0477 145.133 22.4957C144.088 22.9437 142.968 23.1677 141.773 23.1677ZM156.855 22.8477L149.879 7.64766H153.079L158.679 20.4797H156.823L162.455 7.64766H165.527L158.551 22.8477H156.855ZM174.429 23.1677C172.915 23.1677 171.549 22.8263 170.333 22.1437C169.117 21.4397 168.157 20.4903 167.453 19.2957C166.749 18.101 166.397 16.7463 166.397 15.2317C166.397 13.7383 166.739 12.3943 167.421 11.1997C168.125 10.005 169.064 9.06632 170.237 8.38366C171.432 7.67966 172.765 7.32766 174.237 7.32766C175.645 7.32766 176.883 7.64766 177.949 8.28766C179.037 8.92766 179.88 9.81299 180.477 10.9437C181.096 12.0743 181.405 13.3543 181.405 14.7837C181.405 14.997 181.395 15.2317 181.373 15.4877C181.352 15.7223 181.309 15.9997 181.245 16.3197H168.413V13.9197H179.709L178.653 14.8477C178.653 13.8237 178.472 12.9597 178.109 12.2557C177.747 11.5303 177.235 10.9757 176.573 10.5917C175.912 10.1863 175.112 9.98366 174.173 9.98366C173.192 9.98366 172.328 10.197 171.581 10.6237C170.835 11.0503 170.259 11.6477 169.853 12.4157C169.448 13.1837 169.245 14.0903 169.245 15.1357C169.245 16.2023 169.459 17.141 169.885 17.9517C170.312 18.741 170.92 19.3597 171.709 19.8077C172.499 20.2343 173.405 20.4477 174.429 20.4477C175.283 20.4477 176.061 20.2983 176.765 19.9997C177.491 19.701 178.109 19.253 178.621 18.6557L180.477 20.5437C179.752 21.397 178.856 22.0477 177.789 22.4957C176.744 22.9437 175.624 23.1677 174.429 23.1677ZM184.546 22.8477V-0.00034523H187.426V22.8477H184.546ZM198.583 23.1677C197.09 23.1677 195.746 22.8157 194.551 22.1117C193.357 21.4077 192.407 20.4583 191.703 19.2637C190.999 18.0477 190.647 16.693 190.647 15.1997C190.647 13.7277 190.999 12.405 191.703 11.2317C192.407 10.037 193.357 9.08766 194.551 8.38366C195.746 7.67966 197.09 7.32766 198.583 7.32766C200.055 7.32766 201.389 7.67966 202.583 8.38366C203.799 9.06632 204.759 10.005 205.463 11.1997C206.167 12.3943 206.519 13.7277 206.519 15.1997C206.519 16.693 206.167 18.0477 205.463 19.2637C204.759 20.4583 203.799 21.4077 202.583 22.1117C201.389 22.8157 200.055 23.1677 198.583 23.1677ZM198.583 20.3837C199.543 20.3837 200.397 20.1597 201.143 19.7117C201.89 19.2637 202.477 18.6557 202.903 17.8877C203.33 17.0983 203.543 16.2023 203.543 15.1997C203.543 14.2183 203.319 13.3437 202.871 12.5757C202.445 11.8077 201.858 11.2103 201.111 10.7837C200.386 10.3357 199.543 10.1117 198.583 10.1117C197.623 10.1117 196.77 10.3357 196.023 10.7837C195.277 11.2103 194.69 11.8077 194.263 12.5757C193.837 13.3437 193.623 14.2183 193.623 15.1997C193.623 16.2023 193.837 17.0983 194.263 17.8877C194.69 18.6557 195.277 19.2637 196.023 19.7117C196.77 20.1597 197.623 20.3837 198.583 20.3837ZM217.764 23.1677C216.612 23.1677 215.567 22.933 214.628 22.4637C213.711 21.973 212.975 21.301 212.42 20.4477C211.866 19.5943 211.556 18.6237 211.492 17.5357V12.9597C211.556 11.8503 211.866 10.8797 212.42 10.0477C212.996 9.19432 213.743 8.53299 214.66 8.06366C215.599 7.57299 216.634 7.32766 217.764 7.32766C219.151 7.32766 220.399 7.67966 221.508 8.38366C222.639 9.08766 223.524 10.037 224.164 11.2317C224.804 12.4263 225.124 13.7703 225.124 15.2637C225.124 16.757 224.804 18.101 224.164 19.2957C223.524 20.4903 222.639 21.4397 221.508 22.1437C220.399 22.8263 219.151 23.1677 217.764 23.1677ZM209.764 29.2157V7.64766H212.644V11.6477L212.1 15.3277L212.644 19.0397V29.2157H209.764ZM217.284 20.4477C218.244 20.4477 219.087 20.2237 219.812 19.7757C220.538 19.3277 221.114 18.7197 221.54 17.9517C221.967 17.1623 222.18 16.2557 222.18 15.2317C222.18 14.229 221.967 13.333 221.54 12.5437C221.114 11.7543 220.538 11.1463 219.812 10.7197C219.087 10.2717 218.255 10.0477 217.316 10.0477C216.356 10.0477 215.514 10.2717 214.788 10.7197C214.063 11.1463 213.498 11.7543 213.092 12.5437C212.687 13.333 212.484 14.2397 212.484 15.2637C212.484 16.2663 212.676 17.1623 213.06 17.9517C213.466 18.7197 214.031 19.3277 214.756 19.7757C215.503 20.2237 216.346 20.4477 217.284 20.4477ZM235.429 23.1677C233.915 23.1677 232.549 22.8263 231.333 22.1437C230.117 21.4397 229.157 20.4903 228.453 19.2957C227.749 18.101 227.397 16.7463 227.397 15.2317C227.397 13.7383 227.739 12.3943 228.421 11.1997C229.125 10.005 230.064 9.06632 231.237 8.38366C232.432 7.67966 233.765 7.32766 235.237 7.32766C236.645 7.32766 237.883 7.64766 238.949 8.28766C240.037 8.92766 240.88 9.81299 241.477 10.9437C242.096 12.0743 242.405 13.3543 242.405 14.7837C242.405 14.997 242.395 15.2317 242.373 15.4877C242.352 15.7223 242.309 15.9997 242.245 16.3197H229.413V13.9197H240.709L239.653 14.8477C239.653 13.8237 239.472 12.9597 239.109 12.2557C238.747 11.5303 238.235 10.9757 237.573 10.5917C236.912 10.1863 236.112 9.98366 235.173 9.98366C234.192 9.98366 233.328 10.197 232.581 10.6237C231.835 11.0503 231.259 11.6477 230.853 12.4157C230.448 13.1837 230.245 14.0903 230.245 15.1357C230.245 16.2023 230.459 17.141 230.885 17.9517C231.312 18.741 231.92 19.3597 232.709 19.8077C233.499 20.2343 234.405 20.4477 235.429 20.4477C236.283 20.4477 237.061 20.2983 237.765 19.9997C238.491 19.701 239.109 19.253 239.621 18.6557L241.477 20.5437C240.752 21.397 239.856 22.0477 238.789 22.4957C237.744 22.9437 236.624 23.1677 235.429 23.1677ZM245.546 22.8477V7.64766H248.426V22.8477H245.546ZM248.426 14.1757L247.338 13.6957C247.338 11.7543 247.786 10.2077 248.682 9.05566C249.578 7.90366 250.868 7.32766 252.554 7.32766C253.322 7.32766 254.015 7.46632 254.634 7.74366C255.252 7.99966 255.828 8.43699 256.362 9.05566L254.474 11.0077C254.154 10.6663 253.802 10.421 253.418 10.2717C253.034 10.1223 252.586 10.0477 252.074 10.0477C251.007 10.0477 250.132 10.389 249.45 11.0717C248.767 11.7543 248.426 12.789 248.426 14.1757ZM276.168 23.1677C274.611 23.1677 273.149 22.8797 271.784 22.3037C270.44 21.7063 269.256 20.885 268.232 19.8397C267.229 18.7943 266.44 17.5783 265.864 16.1917C265.288 14.805 265 13.3117 265 11.7117C265 10.1117 265.288 8.62899 265.864 7.26366C266.44 5.87699 267.24 4.66099 268.264 3.61566C269.288 2.57032 270.483 1.75965 271.848 1.18365C273.235 0.607655 274.739 0.319654 276.36 0.319654C278.131 0.319654 279.763 0.660988 281.256 1.34365C282.749 2.02632 283.997 3.00765 285 4.28765L282.92 6.36765C282.216 5.34366 281.288 4.56499 280.136 4.03166C278.984 3.47699 277.725 3.19966 276.36 3.19966C274.739 3.19966 273.299 3.56232 272.04 4.28765C270.803 5.01299 269.832 6.01566 269.128 7.29566C268.445 8.57566 268.104 10.0477 268.104 11.7117C268.104 13.397 268.456 14.8797 269.16 16.1597C269.864 17.4397 270.813 18.4423 272.008 19.1677C273.203 19.893 274.568 20.2557 276.104 20.2557C277.661 20.2557 279.005 19.957 280.136 19.3597C281.288 18.7623 282.173 17.8877 282.792 16.7357C283.411 15.5623 283.72 14.133 283.72 12.4477L285.544 13.7597H275.944V11.0077H286.824V11.4557C286.824 14.037 286.365 16.2023 285.448 17.9517C284.552 19.6797 283.293 20.981 281.672 21.8557C280.072 22.7303 278.237 23.1677 276.168 23.1677ZM290.358 22.8477V7.64766H293.238V22.8477H290.358ZM293.238 14.1757L292.15 13.6957C292.15 11.7543 292.598 10.2077 293.494 9.05566C294.39 7.90366 295.681 7.32766 297.366 7.32766C298.134 7.32766 298.827 7.46632 299.446 7.74366C300.065 7.99966 300.641 8.43699 301.174 9.05566L299.286 11.0077C298.966 10.6663 298.614 10.421 298.23 10.2717C297.846 10.1223 297.398 10.0477 296.886 10.0477C295.819 10.0477 294.945 10.389 294.262 11.0717C293.579 11.7543 293.238 12.789 293.238 14.1757ZM309.646 23.1677C308.153 23.1677 306.809 22.8157 305.614 22.1117C304.419 21.4077 303.47 20.4583 302.766 19.2637C302.062 18.0477 301.71 16.693 301.71 15.1997C301.71 13.7277 302.062 12.405 302.766 11.2317C303.47 10.037 304.419 9.08766 305.614 8.38366C306.809 7.67966 308.153 7.32766 309.646 7.32766C311.118 7.32766 312.451 7.67966 313.646 8.38366C314.862 9.06632 315.822 10.005 316.526 11.1997C317.23 12.3943 317.582 13.7277 317.582 15.1997C317.582 16.693 317.23 18.0477 316.526 19.2637C315.822 20.4583 314.862 21.4077 313.646 22.1117C312.451 22.8157 311.118 23.1677 309.646 23.1677ZM309.646 20.3837C310.606 20.3837 311.459 20.1597 312.206 19.7117C312.953 19.2637 313.539 18.6557 313.966 17.8877C314.393 17.0983 314.606 16.2023 314.606 15.1997C314.606 14.2183 314.382 13.3437 313.934 12.5757C313.507 11.8077 312.921 11.2103 312.174 10.7837C311.449 10.3357 310.606 10.1117 309.646 10.1117C308.686 10.1117 307.833 10.3357 307.086 10.7837C306.339 11.2103 305.753 11.8077 305.326 12.5757C304.899 13.3437 304.686 14.2183 304.686 15.1997C304.686 16.2023 304.899 17.0983 305.326 17.8877C305.753 18.6557 306.339 19.2637 307.086 19.7117C307.833 20.1597 308.686 20.3837 309.646 20.3837ZM326.939 23.1677C325.702 23.1677 324.582 22.8903 323.579 22.3357C322.598 21.7597 321.83 20.9703 321.275 19.9677C320.72 18.965 320.443 17.8023 320.443 16.4797V7.64766H323.323V16.3517C323.323 17.1837 323.462 17.909 323.739 18.5277C324.038 19.125 324.464 19.5837 325.019 19.9037C325.574 20.2237 326.224 20.3837 326.971 20.3837C328.102 20.3837 328.987 20.0317 329.627 19.3277C330.267 18.6023 330.587 17.6103 330.587 16.3517V7.64766H333.467V16.4797C333.467 17.8023 333.19 18.965 332.635 19.9677C332.08 20.9703 331.312 21.7597 330.331 22.3357C329.371 22.8903 328.24 23.1677 326.939 23.1677ZM345.327 23.1677C344.175 23.1677 343.13 22.933 342.191 22.4637C341.274 21.973 340.538 21.301 339.983 20.4477C339.428 19.5943 339.119 18.6237 339.055 17.5357V12.9597C339.119 11.8503 339.428 10.8797 339.983 10.0477C340.559 9.19432 341.306 8.53299 342.223 8.06366C343.162 7.57299 344.196 7.32766 345.327 7.32766C346.714 7.32766 347.962 7.67966 349.071 8.38366C350.202 9.08766 351.087 10.037 351.727 11.2317C352.367 12.4263 352.687 13.7703 352.687 15.2637C352.687 16.757 352.367 18.101 351.727 19.2957C351.087 20.4903 350.202 21.4397 349.071 22.1437C347.962 22.8263 346.714 23.1677 345.327 23.1677ZM337.327 29.2157V7.64766H340.207V11.6477L339.663 15.3277L340.207 19.0397V29.2157H337.327ZM344.847 20.4477C345.807 20.4477 346.65 20.2237 347.375 19.7757C348.1 19.3277 348.676 18.7197 349.103 17.9517C349.53 17.1623 349.743 16.2557 349.743 15.2317C349.743 14.229 349.53 13.333 349.103 12.5437C348.676 11.7543 348.1 11.1463 347.375 10.7197C346.65 10.2717 345.818 10.0477 344.879 10.0477C343.919 10.0477 343.076 10.2717 342.351 10.7197C341.626 11.1463 341.06 11.7543 340.655 12.5437C340.25 13.333 340.047 14.2397 340.047 15.2637C340.047 16.2663 340.239 17.1623 340.623 17.9517C341.028 18.7197 341.594 19.3277 342.319 19.7757C343.066 20.2237 343.908 20.4477 344.847 20.4477ZM360.784 23.1677C359.931 23.1677 359.12 23.061 358.352 22.8477C357.605 22.613 356.912 22.293 356.272 21.8877C355.632 21.461 355.077 20.9597 354.608 20.3837L356.464 18.5277C357.019 19.2103 357.659 19.7223 358.384 20.0637C359.109 20.3837 359.92 20.5437 360.816 20.5437C361.712 20.5437 362.405 20.3943 362.896 20.0957C363.387 19.7757 363.632 19.3383 363.632 18.7837C363.632 18.229 363.429 17.8023 363.024 17.5037C362.64 17.1837 362.139 16.9277 361.52 16.7357C360.901 16.5223 360.24 16.3197 359.536 16.1277C358.853 15.9143 358.203 15.6477 357.584 15.3277C356.965 15.0077 356.453 14.5703 356.048 14.0157C355.664 13.461 355.472 12.725 355.472 11.8077C355.472 10.8903 355.696 10.101 356.144 9.43966C356.592 8.75699 357.211 8.23432 358 7.87166C358.811 7.50899 359.781 7.32766 360.912 7.32766C362.107 7.32766 363.163 7.54099 364.08 7.96766C365.019 8.37299 365.787 8.99166 366.384 9.82366L364.528 11.6797C364.101 11.125 363.568 10.6983 362.928 10.3997C362.309 10.101 361.605 9.95166 360.816 9.95166C359.984 9.95166 359.344 10.101 358.896 10.3997C358.469 10.677 358.256 11.0717 358.256 11.5837C358.256 12.0957 358.448 12.4903 358.832 12.7677C359.216 13.045 359.717 13.2797 360.336 13.4717C360.976 13.6637 361.637 13.8663 362.32 14.0797C363.003 14.2717 363.653 14.5383 364.272 14.8797C364.891 15.221 365.392 15.6797 365.776 16.2557C366.181 16.8317 366.384 17.589 366.384 18.5277C366.384 19.957 365.872 21.0877 364.848 21.9197C363.845 22.7517 362.491 23.1677 360.784 23.1677Z" fill="white"/>
</svg>
