<svg width="416" height="21" viewBox="0 0 416 21" fill="none" xmlns="http://www.w3.org/2000/svg">
<path d="M6.368 16.16C5.58933 16.16 4.864 16.016 4.192 15.728C3.53067 15.4293 2.94933 15.024 2.448 14.512C1.94667 13.9893 1.552 13.3867 1.264 12.704C0.986667 12.0107 0.848 11.2693 0.848 10.48C0.848 9.68 0.986667 8.93867 1.264 8.256C1.54133 7.57333 1.93067 6.976 2.432 6.464C2.93333 5.952 3.51467 5.552 4.176 5.264C4.83733 4.976 5.55733 4.832 6.336 4.832C7.11467 4.832 7.83467 4.976 8.496 5.264C9.168 5.552 9.75467 5.952 10.256 6.464C10.7573 6.976 11.1467 7.57867 11.424 8.272C11.7013 8.95467 11.84 9.696 11.84 10.496C11.84 11.2853 11.7013 12.0267 11.424 12.72C11.1467 13.4027 10.7573 14 10.256 14.512C9.76533 15.024 9.18933 15.4293 8.528 15.728C7.86667 16.016 7.14667 16.16 6.368 16.16ZM6.336 15.024C7.168 15.024 7.904 14.8267 8.544 14.432C9.19467 14.0373 9.70133 13.4987 10.064 12.816C10.4373 12.1333 10.624 11.3547 10.624 10.48C10.624 9.82933 10.5173 9.232 10.304 8.688C10.0907 8.13333 9.792 7.65333 9.408 7.248C9.024 6.832 8.57067 6.512 8.048 6.288C7.536 6.064 6.96533 5.952 6.336 5.952C5.51467 5.952 4.77867 6.14933 4.128 6.544C3.488 6.928 2.98133 7.46133 2.608 8.144C2.24533 8.82667 2.064 9.60533 2.064 10.48C2.064 11.1307 2.17067 11.7333 2.384 12.288C2.59733 12.8427 2.896 13.328 3.28 13.744C3.664 14.1493 4.11733 14.464 4.64 14.688C5.16267 14.912 5.728 15.024 6.336 15.024ZM19.3111 16V11.584C19.3111 10.9227 19.1138 10.3893 18.7191 9.984C18.3351 9.568 17.8231 9.36 17.1831 9.36C16.7458 9.36 16.3618 9.456 16.0311 9.648C15.7005 9.84 15.4391 10.1013 15.2471 10.432C15.0551 10.7627 14.9591 11.1413 14.9591 11.568L14.4471 11.28C14.4471 10.7147 14.5805 10.208 14.8471 9.76C15.1138 9.312 15.4711 8.96 15.9191 8.704C16.3778 8.448 16.9005 8.32 17.4871 8.32C18.0631 8.32 18.5751 8.45867 19.0231 8.736C19.4711 9.01333 19.8178 9.38667 20.0631 9.856C20.3191 10.3253 20.4471 10.8373 20.4471 11.392V16H19.3111ZM13.8391 16V8.48H14.9591V16H13.8391ZM31.2438 16.16C30.4544 16.16 29.7184 16.016 29.0358 15.728C28.3638 15.44 27.7771 15.0347 27.2758 14.512C26.7744 13.9893 26.3851 13.3867 26.1078 12.704C25.8411 12.0107 25.7078 11.2693 25.7078 10.48C25.7078 9.69067 25.8411 8.95467 26.1078 8.272C26.3851 7.57867 26.7691 6.976 27.2598 6.464C27.7611 5.952 28.3478 5.552 29.0198 5.264C29.6918 4.976 30.4171 4.832 31.1958 4.832C32.0384 4.832 32.7904 4.98133 33.4518 5.28C34.1238 5.57867 34.7104 5.98933 35.2118 6.512L34.4118 7.312C34.0278 6.88533 33.5638 6.55467 33.0198 6.32C32.4758 6.07467 31.8678 5.952 31.1958 5.952C30.5771 5.952 30.0064 6.064 29.4838 6.288C28.9718 6.512 28.5184 6.832 28.1238 7.248C27.7398 7.65333 27.4411 8.13333 27.2278 8.688C27.0251 9.232 26.9238 9.82933 26.9238 10.48C26.9238 11.1307 27.0304 11.7333 27.2438 12.288C27.4571 12.8427 27.7558 13.328 28.1398 13.744C28.5238 14.1493 28.9771 14.464 29.4998 14.688C30.0224 14.912 30.5931 15.024 31.2118 15.024C31.9158 15.024 32.5398 14.9013 33.0838 14.656C33.6384 14.4107 34.1078 14.0747 34.4918 13.648L35.2918 14.464C34.8011 14.9867 34.2144 15.4027 33.5318 15.712C32.8491 16.0107 32.0864 16.16 31.2438 16.16ZM40.0406 16.16C39.326 16.16 38.686 15.9893 38.1206 15.648C37.5553 15.296 37.1073 14.8267 36.7766 14.24C36.4566 13.6533 36.2966 12.992 36.2966 12.256C36.2966 11.5093 36.4566 10.8427 36.7766 10.256C37.1073 9.65867 37.5553 9.18933 38.1206 8.848C38.686 8.496 39.3206 8.32 40.0246 8.32C40.6006 8.32 41.1126 8.43733 41.5606 8.672C42.0193 8.896 42.3873 9.216 42.6646 9.632C42.9526 10.0373 43.1286 10.512 43.1926 11.056V13.408C43.1286 13.952 42.9526 14.432 42.6646 14.848C42.3873 15.264 42.0193 15.5893 41.5606 15.824C41.1126 16.048 40.606 16.16 40.0406 16.16ZM40.2166 15.088C40.9953 15.088 41.6193 14.8267 42.0886 14.304C42.5686 13.7813 42.8086 13.0933 42.8086 12.24C42.8086 11.6747 42.6966 11.1787 42.4726 10.752C42.2593 10.3147 41.9553 9.97867 41.5606 9.744C41.1766 9.49867 40.7233 9.376 40.2006 9.376C39.6673 9.376 39.1926 9.49867 38.7766 9.744C38.3713 9.98933 38.046 10.3307 37.8006 10.768C37.566 11.1947 37.4486 11.6853 37.4486 12.24C37.4486 12.7947 37.566 13.2853 37.8006 13.712C38.046 14.1387 38.3766 14.4747 38.7926 14.72C39.2086 14.9653 39.6833 15.088 40.2166 15.088ZM42.7446 16V13.984L42.9686 12.128L42.7446 10.32V8.48H43.8646V16H42.7446ZM46.136 16V8.48H47.256V16H46.136ZM51.304 16V11.392C51.304 10.7733 51.1173 10.2827 50.744 9.92C50.3707 9.54667 49.9013 9.36 49.336 9.36C48.952 9.36 48.6 9.44533 48.28 9.616C47.9707 9.776 47.72 10.0053 47.528 10.304C47.3467 10.6027 47.256 10.96 47.256 11.376L46.744 11.168C46.744 10.592 46.872 10.0907 47.128 9.664C47.384 9.23733 47.7253 8.90667 48.152 8.672C48.5893 8.43733 49.08 8.32 49.624 8.32C50.1573 8.32 50.632 8.43733 51.048 8.672C51.4747 8.90667 51.8107 9.23733 52.056 9.664C52.312 10.0907 52.44 10.5973 52.44 11.184V16H51.304ZM56.488 16V11.392C56.488 10.7733 56.3013 10.2827 55.928 9.92C55.5547 9.54667 55.08 9.36 54.504 9.36C54.1307 9.36 53.784 9.44533 53.464 9.616C53.1547 9.776 52.904 10.0053 52.712 10.304C52.5307 10.6027 52.44 10.96 52.44 11.376L51.768 11.168C51.8 10.592 51.9493 10.0907 52.216 9.664C52.4933 9.23733 52.8507 8.90667 53.288 8.672C53.736 8.43733 54.2267 8.32 54.76 8.32C55.2933 8.32 55.7733 8.43733 56.2 8.672C56.6373 8.90667 56.9787 9.23733 57.224 9.664C57.48 10.0907 57.608 10.5973 57.608 11.184V16H56.488ZM63.6021 16.16C63.0261 16.16 62.5088 16.0427 62.0501 15.808C61.5915 15.5733 61.2128 15.2533 60.9141 14.848C60.6261 14.432 60.4501 13.952 60.3861 13.408V11.056C60.4501 10.5013 60.6315 10.0213 60.9301 9.616C61.2288 9.2 61.6075 8.88 62.0661 8.656C62.5355 8.432 63.0475 8.32 63.6021 8.32C64.2955 8.32 64.9195 8.496 65.4741 8.848C66.0288 9.18933 66.4661 9.65867 66.7861 10.256C67.1168 10.8427 67.2821 11.5093 67.2821 12.256C67.2821 12.992 67.1221 13.6533 66.8021 14.24C66.4821 14.8267 66.0395 15.296 65.4741 15.648C64.9195 15.9893 64.2955 16.16 63.6021 16.16ZM59.7141 19.168V8.48H60.8341V10.4L60.6101 12.224L60.8341 14.064V19.168H59.7141ZM63.4101 15.088C63.9435 15.088 64.4128 14.9707 64.8181 14.736C65.2235 14.4907 65.5381 14.1547 65.7621 13.728C65.9968 13.2907 66.1141 12.7947 66.1141 12.24C66.1141 11.6747 65.9968 11.1787 65.7621 10.752C65.5381 10.3253 65.2235 9.98933 64.8181 9.744C64.4128 9.49867 63.9488 9.376 63.4261 9.376C62.9035 9.376 62.4395 9.49867 62.0341 9.744C61.6395 9.98933 61.3301 10.3253 61.1061 10.752C60.8821 11.1787 60.7701 11.6747 60.7701 12.24C60.7701 12.7947 60.8821 13.2907 61.1061 13.728C61.3301 14.1547 61.6395 14.4907 62.0341 14.736C62.4288 14.9707 62.8875 15.088 63.4101 15.088ZM72.0495 16.16C71.4415 16.16 70.8975 16.0213 70.4175 15.744C69.9375 15.456 69.5588 15.0667 69.2815 14.576C69.0148 14.0853 68.8815 13.5093 68.8815 12.848V8.48H70.0175V12.8C70.0175 13.2587 70.0975 13.6587 70.2575 14C70.4282 14.3413 70.6682 14.608 70.9775 14.8C71.2868 14.992 71.6442 15.088 72.0495 15.088C72.6788 15.088 73.1748 14.88 73.5375 14.464C73.9108 14.048 74.0975 13.4933 74.0975 12.8V8.48H75.2175V12.848C75.2175 13.4987 75.0842 14.0747 74.8175 14.576C74.5508 15.0773 74.1775 15.4667 73.6975 15.744C73.2175 16.0213 72.6682 16.16 72.0495 16.16ZM79.6119 16.16C79.2065 16.16 78.8172 16.1067 78.4439 16C78.0705 15.8827 77.7292 15.7227 77.4199 15.52C77.1212 15.3173 76.8599 15.0773 76.6359 14.8L77.3559 14.064C77.6545 14.4267 77.9905 14.6987 78.3639 14.88C78.7479 15.0507 79.1745 15.136 79.6439 15.136C80.1452 15.136 80.5345 15.04 80.8119 14.848C81.0999 14.656 81.2439 14.3893 81.2439 14.048C81.2439 13.728 81.1425 13.4773 80.9399 13.296C80.7372 13.1147 80.4759 12.9707 80.1559 12.864C79.8465 12.7573 79.5159 12.656 79.1639 12.56C78.8119 12.4533 78.4759 12.3253 78.1559 12.176C77.8359 12.016 77.5745 11.7973 77.3719 11.52C77.1799 11.2427 77.0839 10.88 77.0839 10.432C77.0839 10.0053 77.1852 9.63733 77.3879 9.328C77.6012 9.008 77.8999 8.76267 78.2839 8.592C78.6785 8.41067 79.1425 8.32 79.6759 8.32C80.2412 8.32 80.7532 8.42133 81.2119 8.624C81.6705 8.82667 82.0385 9.12533 82.3159 9.52L81.5959 10.24C81.3719 9.952 81.0892 9.73333 80.7479 9.584C80.4172 9.424 80.0439 9.344 79.6279 9.344C79.1479 9.344 78.7799 9.44 78.5239 9.632C78.2785 9.81333 78.1559 10.0533 78.1559 10.352C78.1559 10.64 78.2572 10.8693 78.4599 11.04C78.6625 11.2 78.9185 11.3333 79.2279 11.44C79.5479 11.536 79.8839 11.6373 80.2359 11.744C80.5879 11.84 80.9239 11.9733 81.2439 12.144C81.5639 12.304 81.8199 12.528 82.0119 12.816C82.2145 13.0933 82.3159 13.472 82.3159 13.952C82.3159 14.624 82.0705 15.1627 81.5799 15.568C81.0999 15.9627 80.4439 16.16 79.6119 16.16Z" fill="#00A2FF"/>
<path d="M93.128 16V14.912H96.36C97.224 14.912 97.9867 14.7253 98.648 14.352C99.3093 13.968 99.8267 13.4453 100.2 12.784C100.573 12.112 100.76 11.344 100.76 10.48C100.76 9.616 100.573 8.85333 100.2 8.192C99.8267 7.53067 99.3093 7.01333 98.648 6.64C97.9867 6.256 97.224 6.064 96.36 6.064H93.16V4.992H96.392C97.192 4.992 97.928 5.13067 98.6 5.408C99.2827 5.67467 99.8747 6.05867 100.376 6.56C100.888 7.05067 101.283 7.632 101.56 8.304C101.837 8.96533 101.976 9.696 101.976 10.496C101.976 11.2747 101.837 12 101.56 12.672C101.283 13.344 100.893 13.9307 100.392 14.432C99.8907 14.9227 99.2987 15.3067 98.616 15.584C97.944 15.8613 97.2133 16 96.424 16H93.128ZM92.408 16V4.992H93.576V16H92.408ZM103.964 16V8.48H105.084V16H103.964ZM105.084 11.616L104.62 11.408C104.62 10.4587 104.849 9.70667 105.308 9.152C105.777 8.59733 106.417 8.32 107.228 8.32C107.601 8.32 107.943 8.38933 108.252 8.528C108.561 8.656 108.849 8.864 109.116 9.152L108.38 9.936C108.199 9.73333 107.996 9.58933 107.772 9.504C107.559 9.41867 107.313 9.376 107.036 9.376C106.46 9.376 105.991 9.568 105.628 9.952C105.265 10.3253 105.084 10.88 105.084 11.616ZM113.45 16.16C112.725 16.16 112.064 15.984 111.466 15.632C110.88 15.28 110.41 14.8053 110.058 14.208C109.717 13.6107 109.546 12.944 109.546 12.208C109.546 11.4827 109.717 10.8267 110.058 10.24C110.41 9.65333 110.88 9.18933 111.466 8.848C112.064 8.496 112.725 8.32 113.45 8.32C114.186 8.32 114.848 8.49067 115.434 8.832C116.021 9.17333 116.485 9.64267 116.826 10.24C117.178 10.8267 117.354 11.4827 117.354 12.208C117.354 12.9547 117.178 13.6267 116.826 14.224C116.485 14.8107 116.021 15.28 115.434 15.632C114.848 15.984 114.186 16.16 113.45 16.16ZM113.45 15.072C113.984 15.072 114.453 14.9493 114.858 14.704C115.274 14.4587 115.6 14.1173 115.834 13.68C116.08 13.2427 116.202 12.752 116.202 12.208C116.202 11.664 116.08 11.184 115.834 10.768C115.6 10.3413 115.274 10.0053 114.858 9.76C114.453 9.51467 113.984 9.392 113.45 9.392C112.928 9.392 112.458 9.51467 112.042 9.76C111.626 10.0053 111.301 10.3413 111.066 10.768C110.832 11.184 110.714 11.664 110.714 12.208C110.714 12.7627 110.832 13.2587 111.066 13.696C111.301 14.1227 111.626 14.4587 112.042 14.704C112.458 14.9493 112.928 15.072 113.45 15.072ZM124.608 16V11.584C124.608 10.9227 124.411 10.3893 124.016 9.984C123.632 9.568 123.12 9.36 122.48 9.36C122.043 9.36 121.659 9.456 121.328 9.648C120.997 9.84 120.736 10.1013 120.544 10.432C120.352 10.7627 120.256 11.1413 120.256 11.568L119.744 11.28C119.744 10.7147 119.877 10.208 120.144 9.76C120.411 9.312 120.768 8.96 121.216 8.704C121.675 8.448 122.197 8.32 122.784 8.32C123.36 8.32 123.872 8.45867 124.32 8.736C124.768 9.01333 125.115 9.38667 125.36 9.856C125.616 10.3253 125.744 10.8373 125.744 11.392V16H124.608ZM119.136 16V8.48H120.256V16H119.136ZM131.103 16.16C130.388 16.16 129.748 15.9893 129.183 15.648C128.618 15.296 128.17 14.8267 127.839 14.24C127.519 13.6533 127.359 12.992 127.359 12.256C127.359 11.5093 127.519 10.8427 127.839 10.256C128.17 9.65867 128.618 9.18933 129.183 8.848C129.748 8.496 130.383 8.32 131.087 8.32C131.663 8.32 132.175 8.43733 132.623 8.672C133.082 8.896 133.45 9.216 133.727 9.632C134.015 10.0373 134.191 10.512 134.255 11.056V13.408C134.191 13.952 134.015 14.432 133.727 14.848C133.45 15.264 133.082 15.5893 132.623 15.824C132.175 16.048 131.668 16.16 131.103 16.16ZM131.279 15.088C132.058 15.088 132.682 14.8267 133.151 14.304C133.631 13.7813 133.871 13.0933 133.871 12.24C133.871 11.6747 133.759 11.1787 133.535 10.752C133.322 10.3147 133.018 9.97867 132.623 9.744C132.239 9.49867 131.786 9.376 131.263 9.376C130.73 9.376 130.255 9.49867 129.839 9.744C129.434 9.98933 129.108 10.3307 128.863 10.768C128.628 11.1947 128.511 11.6853 128.511 12.24C128.511 12.7947 128.628 13.2853 128.863 13.712C129.108 14.1387 129.439 14.4747 129.855 14.72C130.271 14.9653 130.746 15.088 131.279 15.088ZM133.807 16V13.984L134.031 12.128L133.807 10.32V8.48H134.927V16H133.807ZM140.623 16.16C139.887 16.16 139.22 15.9893 138.623 15.648C138.036 15.296 137.567 14.8213 137.215 14.224C136.873 13.6267 136.703 12.96 136.703 12.224C136.703 11.488 136.873 10.8267 137.215 10.24C137.567 9.64267 138.036 9.17333 138.623 8.832C139.22 8.49067 139.887 8.32 140.623 8.32C141.188 8.32 141.716 8.42667 142.207 8.64C142.697 8.85333 143.113 9.152 143.455 9.536L142.719 10.288C142.463 10 142.153 9.78133 141.791 9.632C141.428 9.472 141.039 9.392 140.623 9.392C140.089 9.392 139.615 9.51467 139.199 9.76C138.783 10.0053 138.457 10.3413 138.223 10.768C137.988 11.184 137.871 11.6693 137.871 12.224C137.871 12.768 137.988 13.2587 138.223 13.696C138.457 14.1227 138.783 14.4587 139.199 14.704C139.615 14.9493 140.089 15.072 140.623 15.072C141.049 15.072 141.444 14.9973 141.807 14.848C142.169 14.688 142.479 14.464 142.735 14.176L143.487 14.928C143.135 15.3227 142.708 15.6267 142.207 15.84C141.716 16.0533 141.188 16.16 140.623 16.16ZM150.53 16V11.584C150.53 10.9227 150.333 10.3893 149.938 9.984C149.554 9.568 149.042 9.36 148.402 9.36C147.965 9.36 147.581 9.456 147.25 9.648C146.919 9.84 146.658 10.1013 146.466 10.432C146.274 10.7627 146.178 11.1413 146.178 11.568L145.666 11.28C145.666 10.7147 145.799 10.208 146.066 9.76C146.333 9.312 146.69 8.96 147.138 8.704C147.597 8.448 148.119 8.32 148.706 8.32C149.282 8.32 149.794 8.45333 150.242 8.72C150.69 8.976 151.037 9.33333 151.282 9.792C151.538 10.2507 151.666 10.784 151.666 11.392V16H150.53ZM145.058 16V4.672H146.178V16H145.058ZM157.025 16.16C156.31 16.16 155.67 15.9893 155.105 15.648C154.54 15.296 154.092 14.8267 153.761 14.24C153.441 13.6533 153.281 12.992 153.281 12.256C153.281 11.5093 153.441 10.8427 153.761 10.256C154.092 9.65867 154.54 9.18933 155.105 8.848C155.67 8.496 156.305 8.32 157.009 8.32C157.585 8.32 158.097 8.43733 158.545 8.672C159.004 8.896 159.372 9.216 159.649 9.632C159.937 10.0373 160.113 10.512 160.177 11.056V13.408C160.113 13.952 159.937 14.432 159.649 14.848C159.372 15.264 159.004 15.5893 158.545 15.824C158.097 16.048 157.59 16.16 157.025 16.16ZM157.201 15.088C157.98 15.088 158.604 14.8267 159.073 14.304C159.553 13.7813 159.793 13.0933 159.793 12.24C159.793 11.6747 159.681 11.1787 159.457 10.752C159.244 10.3147 158.94 9.97867 158.545 9.744C158.161 9.49867 157.708 9.376 157.185 9.376C156.652 9.376 156.177 9.49867 155.761 9.744C155.356 9.98933 155.03 10.3307 154.785 10.768C154.55 11.1947 154.433 11.6853 154.433 12.24C154.433 12.7947 154.55 13.2853 154.785 13.712C155.03 14.1387 155.361 14.4747 155.777 14.72C156.193 14.9653 156.668 15.088 157.201 15.088ZM159.729 16V13.984L159.953 12.128L159.729 10.32V8.48H160.849V16H159.729ZM163.12 16V8.48H164.24V16H163.12ZM164.24 11.616L163.776 11.408C163.776 10.4587 164.006 9.70667 164.464 9.152C164.934 8.59733 165.574 8.32 166.384 8.32C166.758 8.32 167.099 8.38933 167.408 8.528C167.718 8.656 168.006 8.864 168.272 9.152L167.536 9.936C167.355 9.73333 167.152 9.58933 166.928 9.504C166.715 9.41867 166.47 9.376 166.192 9.376C165.616 9.376 165.147 9.568 164.784 9.952C164.422 10.3253 164.24 10.88 164.24 11.616ZM171.804 16.032L168.508 8.48H169.74L172.396 14.784H171.932L174.732 8.48H175.98L172.444 16.032H171.804ZM169.756 19.168L171.82 14.896L172.444 16.032L170.988 19.168H169.756ZM180.244 16.16C179.529 16.16 178.889 15.9893 178.324 15.648C177.758 15.296 177.31 14.8267 176.98 14.24C176.66 13.6533 176.5 12.992 176.5 12.256C176.5 11.5093 176.66 10.8427 176.98 10.256C177.31 9.65867 177.758 9.18933 178.324 8.848C178.889 8.496 179.524 8.32 180.228 8.32C180.804 8.32 181.316 8.43733 181.764 8.672C182.222 8.896 182.59 9.216 182.868 9.632C183.156 10.0373 183.332 10.512 183.396 11.056V13.408C183.332 13.952 183.156 14.432 182.868 14.848C182.59 15.264 182.222 15.5893 181.764 15.824C181.316 16.048 180.809 16.16 180.244 16.16ZM180.42 15.088C181.198 15.088 181.822 14.8267 182.292 14.304C182.772 13.7813 183.012 13.0933 183.012 12.24C183.012 11.6747 182.9 11.1787 182.676 10.752C182.462 10.3147 182.158 9.97867 181.764 9.744C181.38 9.49867 180.926 9.376 180.404 9.376C179.87 9.376 179.396 9.49867 178.98 9.744C178.574 9.98933 178.249 10.3307 178.004 10.768C177.769 11.1947 177.652 11.6853 177.652 12.24C177.652 12.7947 177.769 13.2853 178.004 13.712C178.249 14.1387 178.58 14.4747 178.996 14.72C179.412 14.9653 179.886 15.088 180.42 15.088ZM182.948 16V13.984L183.172 12.128L182.948 10.32V8.48H184.068V16H182.948ZM195.041 16.16C194.251 16.16 193.515 16.016 192.833 15.728C192.161 15.44 191.574 15.0347 191.073 14.512C190.571 13.9893 190.182 13.3867 189.905 12.704C189.638 12.0107 189.505 11.2693 189.505 10.48C189.505 9.69067 189.638 8.95467 189.905 8.272C190.182 7.57867 190.566 6.976 191.057 6.464C191.558 5.952 192.145 5.552 192.817 5.264C193.489 4.976 194.214 4.832 194.993 4.832C195.835 4.832 196.587 4.98133 197.249 5.28C197.921 5.57867 198.507 5.98933 199.009 6.512L198.209 7.312C197.825 6.88533 197.361 6.55467 196.817 6.32C196.273 6.07467 195.665 5.952 194.993 5.952C194.374 5.952 193.803 6.064 193.281 6.288C192.769 6.512 192.315 6.832 191.921 7.248C191.537 7.65333 191.238 8.13333 191.025 8.688C190.822 9.232 190.721 9.82933 190.721 10.48C190.721 11.1307 190.827 11.7333 191.041 12.288C191.254 12.8427 191.553 13.328 191.937 13.744C192.321 14.1493 192.774 14.464 193.297 14.688C193.819 14.912 194.39 15.024 195.009 15.024C195.713 15.024 196.337 14.9013 196.881 14.656C197.435 14.4107 197.905 14.0747 198.289 13.648L199.089 14.464C198.598 14.9867 198.011 15.4027 197.329 15.712C196.646 16.0107 195.883 16.16 195.041 16.16ZM203.982 16.16C203.256 16.16 202.595 15.984 201.998 15.632C201.411 15.28 200.942 14.8053 200.59 14.208C200.248 13.6107 200.078 12.944 200.078 12.208C200.078 11.4827 200.248 10.8267 200.59 10.24C200.942 9.65333 201.411 9.18933 201.998 8.848C202.595 8.496 203.256 8.32 203.982 8.32C204.718 8.32 205.379 8.49067 205.966 8.832C206.552 9.17333 207.016 9.64267 207.358 10.24C207.71 10.8267 207.885 11.4827 207.885 12.208C207.885 12.9547 207.71 13.6267 207.358 14.224C207.016 14.8107 206.552 15.28 205.966 15.632C205.379 15.984 204.718 16.16 203.982 16.16ZM203.982 15.072C204.515 15.072 204.984 14.9493 205.39 14.704C205.806 14.4587 206.131 14.1173 206.366 13.68C206.611 13.2427 206.734 12.752 206.734 12.208C206.734 11.664 206.611 11.184 206.366 10.768C206.131 10.3413 205.806 10.0053 205.39 9.76C204.984 9.51467 204.515 9.392 203.982 9.392C203.459 9.392 202.99 9.51467 202.574 9.76C202.158 10.0053 201.832 10.3413 201.598 10.768C201.363 11.184 201.246 11.664 201.246 12.208C201.246 12.7627 201.363 13.2587 201.598 13.696C201.832 14.1227 202.158 14.4587 202.574 14.704C202.99 14.9493 203.459 15.072 203.982 15.072ZM209.667 16V4.672H210.787V16H209.667ZM213.058 16V4.672H214.178V16H213.058ZM219.921 16.16C219.163 16.16 218.486 15.9893 217.889 15.648C217.291 15.3067 216.817 14.8373 216.465 14.24C216.123 13.6427 215.953 12.9707 215.953 12.224C215.953 11.488 216.123 10.8267 216.465 10.24C216.806 9.64267 217.27 9.17333 217.857 8.832C218.443 8.49067 219.099 8.32 219.825 8.32C220.507 8.32 221.11 8.47467 221.633 8.784C222.166 9.09333 222.582 9.52533 222.881 10.08C223.19 10.624 223.345 11.2533 223.345 11.968C223.345 12.0533 223.339 12.1547 223.329 12.272C223.318 12.3787 223.297 12.5067 223.265 12.656H216.753V11.696H222.657L222.257 12.048C222.267 11.4933 222.171 11.0187 221.969 10.624C221.777 10.2187 221.494 9.90933 221.121 9.696C220.758 9.472 220.315 9.36 219.793 9.36C219.249 9.36 218.774 9.47733 218.369 9.712C217.963 9.94667 217.643 10.2773 217.409 10.704C217.185 11.12 217.073 11.616 217.073 12.192C217.073 12.768 217.19 13.2747 217.424 13.712C217.67 14.1493 218.006 14.4907 218.433 14.736C218.87 14.9813 219.371 15.104 219.937 15.104C220.395 15.104 220.817 15.024 221.201 14.864C221.585 14.6933 221.91 14.4427 222.177 14.112L222.897 14.848C222.545 15.264 222.107 15.5893 221.585 15.824C221.073 16.048 220.518 16.16 219.921 16.16ZM228.162 19.328C227.405 19.328 226.727 19.184 226.13 18.896C225.543 18.6187 225.069 18.224 224.706 17.712L225.442 16.976C225.741 17.3813 226.119 17.696 226.578 17.92C227.037 18.144 227.575 18.256 228.194 18.256C229.047 18.256 229.725 18.0267 230.226 17.568C230.738 17.1093 230.994 16.4853 230.994 15.696V13.824L231.218 12.112L230.994 10.416V8.48H232.114V15.696C232.114 16.4213 231.949 17.056 231.618 17.6C231.287 18.144 230.823 18.5653 230.226 18.864C229.639 19.1733 228.951 19.328 228.162 19.328ZM228.242 15.92C227.549 15.92 226.925 15.7547 226.37 15.424C225.815 15.0933 225.378 14.64 225.058 14.064C224.738 13.488 224.578 12.8373 224.578 12.112C224.578 11.3867 224.733 10.7413 225.042 10.176C225.362 9.6 225.799 9.14667 226.354 8.816C226.909 8.48533 227.533 8.32 228.226 8.32C228.813 8.32 229.335 8.432 229.794 8.656C230.263 8.88 230.637 9.2 230.914 9.616C231.202 10.0213 231.378 10.5013 231.442 11.056V13.184C231.378 13.728 231.202 14.208 230.914 14.624C230.626 15.0293 230.253 15.3493 229.794 15.584C229.335 15.808 228.818 15.92 228.242 15.92ZM228.45 14.848C228.973 14.848 229.426 14.736 229.81 14.512C230.205 14.288 230.509 13.9733 230.722 13.568C230.946 13.152 231.058 12.6667 231.058 12.112C231.058 11.568 230.946 11.0933 230.722 10.688C230.509 10.2827 230.205 9.96267 229.81 9.728C229.415 9.49333 228.957 9.376 228.434 9.376C227.911 9.376 227.442 9.49333 227.026 9.728C226.621 9.96267 226.301 10.2827 226.066 10.688C225.842 11.0933 225.73 11.568 225.73 12.112C225.73 12.6453 225.847 13.12 226.082 13.536C226.317 13.952 226.637 14.2773 227.042 14.512C227.447 14.736 227.917 14.848 228.45 14.848ZM237.842 16.16C237.085 16.16 236.408 15.9893 235.81 15.648C235.213 15.3067 234.738 14.8373 234.386 14.24C234.045 13.6427 233.874 12.9707 233.874 12.224C233.874 11.488 234.045 10.8267 234.386 10.24C234.728 9.64267 235.192 9.17333 235.778 8.832C236.365 8.49067 237.021 8.32 237.746 8.32C238.429 8.32 239.032 8.47467 239.554 8.784C240.088 9.09333 240.504 9.52533 240.802 10.08C241.112 10.624 241.266 11.2533 241.266 11.968C241.266 12.0533 241.261 12.1547 241.25 12.272C241.24 12.3787 241.218 12.5067 241.186 12.656H234.674V11.696H240.578L240.178 12.048C240.189 11.4933 240.093 11.0187 239.89 10.624C239.698 10.2187 239.416 9.90933 239.042 9.696C238.68 9.472 238.237 9.36 237.714 9.36C237.17 9.36 236.696 9.47733 236.29 9.712C235.885 9.94667 235.565 10.2773 235.33 10.704C235.106 11.12 234.994 11.616 234.994 12.192C234.994 12.768 235.112 13.2747 235.346 13.712C235.592 14.1493 235.928 14.4907 236.354 14.736C236.792 14.9813 237.293 15.104 237.858 15.104C238.317 15.104 238.738 15.024 239.122 14.864C239.506 14.6933 239.832 14.4427 240.098 14.112L240.818 14.848C240.466 15.264 240.029 15.5893 239.506 15.824C238.994 16.048 238.44 16.16 237.842 16.16ZM249.825 16.16C249.1 16.16 248.439 15.984 247.841 15.632C247.255 15.28 246.785 14.8053 246.433 14.208C246.092 13.6107 245.921 12.944 245.921 12.208C245.921 11.4827 246.092 10.8267 246.433 10.24C246.785 9.65333 247.255 9.18933 247.841 8.848C248.439 8.496 249.1 8.32 249.825 8.32C250.561 8.32 251.223 8.49067 251.809 8.832C252.396 9.17333 252.86 9.64267 253.201 10.24C253.553 10.8267 253.729 11.4827 253.729 12.208C253.729 12.9547 253.553 13.6267 253.201 14.224C252.86 14.8107 252.396 15.28 251.809 15.632C251.223 15.984 250.561 16.16 249.825 16.16ZM249.825 15.072C250.359 15.072 250.828 14.9493 251.233 14.704C251.649 14.4587 251.975 14.1173 252.209 13.68C252.455 13.2427 252.577 12.752 252.577 12.208C252.577 11.664 252.455 11.184 252.209 10.768C251.975 10.3413 251.649 10.0053 251.233 9.76C250.828 9.51467 250.359 9.392 249.825 9.392C249.303 9.392 248.833 9.51467 248.417 9.76C248.001 10.0053 247.676 10.3413 247.441 10.768C247.207 11.184 247.089 11.664 247.089 12.208C247.089 12.7627 247.207 13.2587 247.441 13.696C247.676 14.1227 248.001 14.4587 248.417 14.704C248.833 14.9493 249.303 15.072 249.825 15.072ZM256.349 16V7.2C256.349 6.67733 256.461 6.21333 256.685 5.808C256.92 5.40267 257.24 5.088 257.645 4.864C258.061 4.62933 258.531 4.512 259.053 4.512C259.459 4.512 259.816 4.58667 260.125 4.736C260.435 4.87467 260.717 5.072 260.973 5.328L260.237 6.064C260.067 5.89333 259.885 5.77067 259.693 5.696C259.512 5.61067 259.299 5.568 259.053 5.568C258.552 5.568 258.163 5.71733 257.885 6.016C257.619 6.304 257.485 6.70933 257.485 7.232V16H256.349ZM254.461 9.488V8.48H259.997V9.488H254.461ZM265.267 16V4.992H266.435V16H265.267ZM266.035 16V14.928H272.515V16H266.035ZM266.035 10.88V9.84H272.003V10.88H266.035ZM266.035 6.064V4.992H272.419V6.064H266.035ZM279.889 16V11.584C279.889 10.9227 279.692 10.3893 279.297 9.984C278.913 9.568 278.401 9.36 277.761 9.36C277.324 9.36 276.94 9.456 276.609 9.648C276.279 9.84 276.017 10.1013 275.825 10.432C275.633 10.7627 275.537 11.1413 275.537 11.568L275.025 11.28C275.025 10.7147 275.159 10.208 275.425 9.76C275.692 9.312 276.049 8.96 276.497 8.704C276.956 8.448 277.479 8.32 278.065 8.32C278.641 8.32 279.153 8.45867 279.601 8.736C280.049 9.01333 280.396 9.38667 280.641 9.856C280.897 10.3253 281.025 10.8373 281.025 11.392V16H279.889ZM274.417 16V8.48H275.537V16H274.417ZM286.224 19.328C285.467 19.328 284.79 19.184 284.192 18.896C283.606 18.6187 283.131 18.224 282.768 17.712L283.504 16.976C283.803 17.3813 284.182 17.696 284.64 17.92C285.099 18.144 285.638 18.256 286.256 18.256C287.11 18.256 287.787 18.0267 288.288 17.568C288.8 17.1093 289.056 16.4853 289.056 15.696V13.824L289.28 12.112L289.056 10.416V8.48H290.176V15.696C290.176 16.4213 290.011 17.056 289.68 17.6C289.35 18.144 288.886 18.5653 288.288 18.864C287.702 19.1733 287.014 19.328 286.224 19.328ZM286.304 15.92C285.611 15.92 284.987 15.7547 284.432 15.424C283.878 15.0933 283.44 14.64 283.12 14.064C282.8 13.488 282.64 12.8373 282.64 12.112C282.64 11.3867 282.795 10.7413 283.104 10.176C283.424 9.6 283.862 9.14667 284.416 8.816C284.971 8.48533 285.595 8.32 286.288 8.32C286.875 8.32 287.398 8.432 287.856 8.656C288.326 8.88 288.699 9.2 288.976 9.616C289.264 10.0213 289.44 10.5013 289.504 11.056V13.184C289.44 13.728 289.264 14.208 288.976 14.624C288.688 15.0293 288.315 15.3493 287.856 15.584C287.398 15.808 286.88 15.92 286.304 15.92ZM286.512 14.848C287.035 14.848 287.488 14.736 287.872 14.512C288.267 14.288 288.571 13.9733 288.784 13.568C289.008 13.152 289.12 12.6667 289.12 12.112C289.12 11.568 289.008 11.0933 288.784 10.688C288.571 10.2827 288.267 9.96267 287.872 9.728C287.478 9.49333 287.019 9.376 286.496 9.376C285.974 9.376 285.504 9.49333 285.088 9.728C284.683 9.96267 284.363 10.2827 284.128 10.688C283.904 11.0933 283.792 11.568 283.792 12.112C283.792 12.6453 283.91 13.12 284.144 13.536C284.379 13.952 284.699 14.2773 285.104 14.512C285.51 14.736 285.979 14.848 286.512 14.848ZM292.433 16V8.48H293.569V16H292.433ZM292.993 6.848C292.78 6.848 292.598 6.77333 292.449 6.624C292.3 6.464 292.225 6.27733 292.225 6.064C292.225 5.84 292.3 5.65333 292.449 5.504C292.598 5.35467 292.78 5.28 292.993 5.28C293.228 5.28 293.414 5.35467 293.553 5.504C293.702 5.65333 293.777 5.84 293.777 6.064C293.777 6.27733 293.702 6.464 293.553 6.624C293.414 6.77333 293.228 6.848 292.993 6.848ZM301.311 16V11.584C301.311 10.9227 301.114 10.3893 300.719 9.984C300.335 9.568 299.823 9.36 299.183 9.36C298.746 9.36 298.362 9.456 298.031 9.648C297.7 9.84 297.439 10.1013 297.247 10.432C297.055 10.7627 296.959 11.1413 296.959 11.568L296.447 11.28C296.447 10.7147 296.58 10.208 296.847 9.76C297.114 9.312 297.471 8.96 297.919 8.704C298.378 8.448 298.9 8.32 299.487 8.32C300.063 8.32 300.575 8.45867 301.023 8.736C301.471 9.01333 301.818 9.38667 302.063 9.856C302.319 10.3253 302.447 10.8373 302.447 11.392V16H301.311ZM295.839 16V8.48H296.959V16H295.839ZM308.014 16.16C307.257 16.16 306.58 15.9893 305.982 15.648C305.385 15.3067 304.91 14.8373 304.558 14.24C304.217 13.6427 304.046 12.9707 304.046 12.224C304.046 11.488 304.217 10.8267 304.558 10.24C304.9 9.64267 305.364 9.17333 305.95 8.832C306.537 8.49067 307.193 8.32 307.918 8.32C308.601 8.32 309.204 8.47467 309.726 8.784C310.26 9.09333 310.676 9.52533 310.974 10.08C311.284 10.624 311.438 11.2533 311.438 11.968C311.438 12.0533 311.433 12.1547 311.422 12.272C311.412 12.3787 311.39 12.5067 311.358 12.656H304.846V11.696H310.75L310.35 12.048C310.361 11.4933 310.265 11.0187 310.062 10.624C309.87 10.2187 309.588 9.90933 309.214 9.696C308.852 9.472 308.409 9.36 307.886 9.36C307.342 9.36 306.868 9.47733 306.462 9.712C306.057 9.94667 305.737 10.2773 305.502 10.704C305.278 11.12 305.166 11.616 305.166 12.192C305.166 12.768 305.284 13.2747 305.518 13.712C305.764 14.1493 306.1 14.4907 306.526 14.736C306.964 14.9813 307.465 15.104 308.03 15.104C308.489 15.104 308.91 15.024 309.294 14.864C309.678 14.6933 310.004 14.4427 310.27 14.112L310.99 14.848C310.638 15.264 310.201 15.5893 309.678 15.824C309.166 16.048 308.612 16.16 308.014 16.16ZM316.624 16.16C315.866 16.16 315.189 15.9893 314.592 15.648C313.994 15.3067 313.52 14.8373 313.168 14.24C312.826 13.6427 312.656 12.9707 312.656 12.224C312.656 11.488 312.826 10.8267 313.168 10.24C313.509 9.64267 313.973 9.17333 314.56 8.832C315.146 8.49067 315.802 8.32 316.528 8.32C317.21 8.32 317.813 8.47467 318.336 8.784C318.869 9.09333 319.285 9.52533 319.584 10.08C319.893 10.624 320.048 11.2533 320.048 11.968C320.048 12.0533 320.042 12.1547 320.032 12.272C320.021 12.3787 320 12.5067 319.968 12.656H313.456V11.696H319.36L318.96 12.048C318.97 11.4933 318.874 11.0187 318.672 10.624C318.48 10.2187 318.197 9.90933 317.824 9.696C317.461 9.472 317.018 9.36 316.496 9.36C315.952 9.36 315.477 9.47733 315.072 9.712C314.666 9.94667 314.346 10.2773 314.112 10.704C313.888 11.12 313.776 11.616 313.776 12.192C313.776 12.768 313.893 13.2747 314.128 13.712C314.373 14.1493 314.709 14.4907 315.136 14.736C315.573 14.9813 316.074 15.104 316.64 15.104C317.098 15.104 317.52 15.024 317.904 14.864C318.288 14.6933 318.613 14.4427 318.88 14.112L319.6 14.848C319.248 15.264 318.81 15.5893 318.288 15.824C317.776 16.048 317.221 16.16 316.624 16.16ZM321.761 16V8.48H322.881V16H321.761ZM322.881 11.616L322.417 11.408C322.417 10.4587 322.646 9.70667 323.105 9.152C323.574 8.59733 324.214 8.32 325.025 8.32C325.398 8.32 325.74 8.38933 326.049 8.528C326.358 8.656 326.646 8.864 326.913 9.152L326.177 9.936C325.996 9.73333 325.793 9.58933 325.569 9.504C325.356 9.41867 325.11 9.376 324.833 9.376C324.257 9.376 323.788 9.568 323.425 9.952C323.062 10.3253 322.881 10.88 322.881 11.616ZM328.105 16V8.48H329.241V16H328.105ZM328.665 6.848C328.451 6.848 328.27 6.77333 328.121 6.624C327.971 6.464 327.897 6.27733 327.897 6.064C327.897 5.84 327.971 5.65333 328.121 5.504C328.27 5.35467 328.451 5.28 328.665 5.28C328.899 5.28 329.086 5.35467 329.225 5.504C329.374 5.65333 329.449 5.84 329.449 6.064C329.449 6.27733 329.374 6.464 329.225 6.624C329.086 6.77333 328.899 6.848 328.665 6.848ZM336.983 16V11.584C336.983 10.9227 336.786 10.3893 336.391 9.984C336.007 9.568 335.495 9.36 334.855 9.36C334.418 9.36 334.034 9.456 333.703 9.648C333.372 9.84 333.111 10.1013 332.919 10.432C332.727 10.7627 332.631 11.1413 332.631 11.568L332.119 11.28C332.119 10.7147 332.252 10.208 332.519 9.76C332.786 9.312 333.143 8.96 333.591 8.704C334.05 8.448 334.572 8.32 335.159 8.32C335.735 8.32 336.247 8.45867 336.695 8.736C337.143 9.01333 337.49 9.38667 337.735 9.856C337.991 10.3253 338.119 10.8373 338.119 11.392V16H336.983ZM331.511 16V8.48H332.631V16H331.511ZM343.318 19.328C342.561 19.328 341.883 19.184 341.286 18.896C340.699 18.6187 340.225 18.224 339.862 17.712L340.598 16.976C340.897 17.3813 341.275 17.696 341.734 17.92C342.193 18.144 342.731 18.256 343.35 18.256C344.203 18.256 344.881 18.0267 345.382 17.568C345.894 17.1093 346.15 16.4853 346.15 15.696V13.824L346.374 12.112L346.15 10.416V8.48H347.27V15.696C347.27 16.4213 347.105 17.056 346.774 17.6C346.443 18.144 345.979 18.5653 345.382 18.864C344.795 19.1733 344.107 19.328 343.318 19.328ZM343.398 15.92C342.705 15.92 342.081 15.7547 341.526 15.424C340.971 15.0933 340.534 14.64 340.214 14.064C339.894 13.488 339.734 12.8373 339.734 12.112C339.734 11.3867 339.889 10.7413 340.198 10.176C340.518 9.6 340.955 9.14667 341.51 8.816C342.065 8.48533 342.689 8.32 343.382 8.32C343.969 8.32 344.491 8.432 344.95 8.656C345.419 8.88 345.793 9.2 346.07 9.616C346.358 10.0213 346.534 10.5013 346.598 11.056V13.184C346.534 13.728 346.358 14.208 346.07 14.624C345.782 15.0293 345.409 15.3493 344.95 15.584C344.491 15.808 343.974 15.92 343.398 15.92ZM343.606 14.848C344.129 14.848 344.582 14.736 344.966 14.512C345.361 14.288 345.665 13.9733 345.878 13.568C346.102 13.152 346.214 12.6667 346.214 12.112C346.214 11.568 346.102 11.0933 345.878 10.688C345.665 10.2827 345.361 9.96267 344.966 9.728C344.571 9.49333 344.113 9.376 343.59 9.376C343.067 9.376 342.598 9.49333 342.182 9.728C341.777 9.96267 341.457 10.2827 341.222 10.688C340.998 11.0933 340.886 11.568 340.886 12.112C340.886 12.6453 341.003 13.12 341.238 13.536C341.473 13.952 341.793 14.2773 342.198 14.512C342.603 14.736 343.073 14.848 343.606 14.848ZM349.687 17.648L350.599 15.872L350.999 15.776C350.956 15.872 350.897 15.952 350.823 16.016C350.748 16.0907 350.657 16.128 350.551 16.128C350.348 16.128 350.161 16.048 349.991 15.888C349.831 15.7173 349.751 15.5093 349.751 15.264C349.751 15.008 349.841 14.7893 350.023 14.608C350.204 14.416 350.423 14.32 350.679 14.32C350.924 14.32 351.137 14.416 351.319 14.608C351.511 14.7893 351.607 15.008 351.607 15.264C351.607 15.3707 351.585 15.4987 351.543 15.648C351.511 15.7867 351.436 15.9733 351.319 16.208L350.359 18.016L349.687 17.648ZM358.556 16.144C357.777 16.144 357.052 16 356.38 15.712C355.708 15.424 355.121 15.024 354.62 14.512C354.119 14 353.729 13.4027 353.452 12.72C353.175 12.0267 353.036 11.28 353.036 10.48C353.036 9.68 353.175 8.93867 353.452 8.256C353.74 7.57333 354.135 6.976 354.636 6.464C355.137 5.94133 355.729 5.536 356.412 5.248C357.095 4.96 357.836 4.816 358.636 4.816C359.521 4.816 360.332 4.992 361.068 5.344C361.815 5.696 362.428 6.192 362.908 6.832L362.092 7.648C361.708 7.104 361.217 6.688 360.62 6.4C360.023 6.10133 359.361 5.952 358.636 5.952C357.772 5.952 357.009 6.14933 356.348 6.544C355.687 6.928 355.169 7.46133 354.796 8.144C354.433 8.82667 354.252 9.61067 354.252 10.496C354.252 11.3707 354.433 12.1493 354.796 12.832C355.169 13.5147 355.676 14.0533 356.316 14.448C356.967 14.832 357.703 15.024 358.524 15.024C359.345 15.024 360.055 14.8587 360.652 14.528C361.26 14.1973 361.724 13.7173 362.044 13.088C362.375 12.4587 362.545 11.7013 362.556 10.816L363.228 11.312H358.412V10.24H363.772V10.416C363.772 11.6533 363.548 12.6987 363.1 13.552C362.663 14.4053 362.055 15.0507 361.276 15.488C360.497 15.9253 359.591 16.144 358.556 16.144ZM368.659 16.16C368.051 16.16 367.507 16.0213 367.027 15.744C366.547 15.456 366.168 15.0667 365.891 14.576C365.624 14.0853 365.491 13.5093 365.491 12.848V8.48H366.627V12.8C366.627 13.2587 366.707 13.6587 366.867 14C367.038 14.3413 367.278 14.608 367.587 14.8C367.896 14.992 368.254 15.088 368.659 15.088C369.288 15.088 369.784 14.88 370.147 14.464C370.52 14.048 370.707 13.4933 370.707 12.8V8.48H371.827V12.848C371.827 13.4987 371.694 14.0747 371.427 14.576C371.16 15.0773 370.787 15.4667 370.307 15.744C369.827 16.0213 369.278 16.16 368.659 16.16ZM373.917 16V8.48H375.037V16H373.917ZM375.037 11.616L374.573 11.408C374.573 10.4587 374.803 9.70667 375.261 9.152C375.731 8.59733 376.371 8.32 377.181 8.32C377.555 8.32 377.896 8.38933 378.205 8.528C378.515 8.656 378.803 8.864 379.069 9.152L378.333 9.936C378.152 9.73333 377.949 9.58933 377.725 9.504C377.512 9.41867 377.267 9.376 376.989 9.376C376.413 9.376 375.944 9.568 375.581 9.952C375.219 10.3253 375.037 10.88 375.037 11.616ZM383.099 19.328C382.342 19.328 381.665 19.184 381.067 18.896C380.481 18.6187 380.006 18.224 379.643 17.712L380.379 16.976C380.678 17.3813 381.057 17.696 381.515 17.92C381.974 18.144 382.513 18.256 383.131 18.256C383.985 18.256 384.662 18.0267 385.163 17.568C385.675 17.1093 385.931 16.4853 385.931 15.696V13.824L386.155 12.112L385.931 10.416V8.48H387.051V15.696C387.051 16.4213 386.886 17.056 386.555 17.6C386.225 18.144 385.761 18.5653 385.163 18.864C384.577 19.1733 383.889 19.328 383.099 19.328ZM383.179 15.92C382.486 15.92 381.862 15.7547 381.307 15.424C380.753 15.0933 380.315 14.64 379.995 14.064C379.675 13.488 379.515 12.8373 379.515 12.112C379.515 11.3867 379.67 10.7413 379.979 10.176C380.299 9.6 380.737 9.14667 381.291 8.816C381.846 8.48533 382.47 8.32 383.163 8.32C383.75 8.32 384.273 8.432 384.731 8.656C385.201 8.88 385.574 9.2 385.851 9.616C386.139 10.0213 386.315 10.5013 386.379 11.056V13.184C386.315 13.728 386.139 14.208 385.851 14.624C385.563 15.0293 385.19 15.3493 384.731 15.584C384.273 15.808 383.755 15.92 383.179 15.92ZM383.387 14.848C383.91 14.848 384.363 14.736 384.747 14.512C385.142 14.288 385.446 13.9733 385.659 13.568C385.883 13.152 385.995 12.6667 385.995 12.112C385.995 11.568 385.883 11.0933 385.659 10.688C385.446 10.2827 385.142 9.96267 384.747 9.728C384.353 9.49333 383.894 9.376 383.371 9.376C382.849 9.376 382.379 9.49333 381.963 9.728C381.558 9.96267 381.238 10.2827 381.003 10.688C380.779 11.0933 380.667 11.568 380.667 12.112C380.667 12.6453 380.785 13.12 381.019 13.536C381.254 13.952 381.574 14.2773 381.979 14.512C382.385 14.736 382.854 14.848 383.387 14.848ZM392.572 16.16C391.857 16.16 391.217 15.9893 390.652 15.648C390.087 15.296 389.639 14.8267 389.308 14.24C388.988 13.6533 388.828 12.992 388.828 12.256C388.828 11.5093 388.988 10.8427 389.308 10.256C389.639 9.65867 390.087 9.18933 390.652 8.848C391.217 8.496 391.852 8.32 392.556 8.32C393.132 8.32 393.644 8.43733 394.092 8.672C394.551 8.896 394.919 9.216 395.196 9.632C395.484 10.0373 395.66 10.512 395.724 11.056V13.408C395.66 13.952 395.484 14.432 395.196 14.848C394.919 15.264 394.551 15.5893 394.092 15.824C393.644 16.048 393.137 16.16 392.572 16.16ZM392.748 15.088C393.527 15.088 394.151 14.8267 394.62 14.304C395.1 13.7813 395.34 13.0933 395.34 12.24C395.34 11.6747 395.228 11.1787 395.004 10.752C394.791 10.3147 394.487 9.97867 394.092 9.744C393.708 9.49867 393.255 9.376 392.732 9.376C392.199 9.376 391.724 9.49867 391.308 9.744C390.903 9.98933 390.577 10.3307 390.332 10.768C390.097 11.1947 389.98 11.6853 389.98 12.24C389.98 12.7947 390.097 13.2853 390.332 13.712C390.577 14.1387 390.908 14.4747 391.324 14.72C391.74 14.9653 392.215 15.088 392.748 15.088ZM395.276 16V13.984L395.5 12.128L395.276 10.32V8.48H396.396V16H395.276ZM402.075 16.16C401.35 16.16 400.689 15.984 400.091 15.632C399.505 15.28 399.035 14.8053 398.683 14.208C398.342 13.6107 398.171 12.944 398.171 12.208C398.171 11.4827 398.342 10.8267 398.683 10.24C399.035 9.65333 399.505 9.18933 400.091 8.848C400.689 8.496 401.35 8.32 402.075 8.32C402.811 8.32 403.473 8.49067 404.059 8.832C404.646 9.17333 405.11 9.64267 405.451 10.24C405.803 10.8267 405.979 11.4827 405.979 12.208C405.979 12.9547 405.803 13.6267 405.451 14.224C405.11 14.8107 404.646 15.28 404.059 15.632C403.473 15.984 402.811 16.16 402.075 16.16ZM402.075 15.072C402.609 15.072 403.078 14.9493 403.483 14.704C403.899 14.4587 404.225 14.1173 404.459 13.68C404.705 13.2427 404.827 12.752 404.827 12.208C404.827 11.664 404.705 11.184 404.459 10.768C404.225 10.3413 403.899 10.0053 403.483 9.76C403.078 9.51467 402.609 9.392 402.075 9.392C401.553 9.392 401.083 9.51467 400.667 9.76C400.251 10.0053 399.926 10.3413 399.691 10.768C399.457 11.184 399.339 11.664 399.339 12.208C399.339 12.7627 399.457 13.2587 399.691 13.696C399.926 14.1227 400.251 14.4587 400.667 14.704C401.083 14.9493 401.553 15.072 402.075 15.072ZM413.233 16V11.584C413.233 10.9227 413.036 10.3893 412.641 9.984C412.257 9.568 411.745 9.36 411.105 9.36C410.668 9.36 410.284 9.456 409.953 9.648C409.622 9.84 409.361 10.1013 409.169 10.432C408.977 10.7627 408.881 11.1413 408.881 11.568L408.369 11.28C408.369 10.7147 408.502 10.208 408.769 9.76C409.036 9.312 409.393 8.96 409.841 8.704C410.3 8.448 410.822 8.32 411.409 8.32C411.985 8.32 412.497 8.45867 412.945 8.736C413.393 9.01333 413.74 9.38667 413.985 9.856C414.241 10.3253 414.369 10.8373 414.369 11.392V16H413.233ZM407.761 16V8.48H408.881V16H407.761Z" fill="white"/>
<path d="M87.544 12.648C87.2667 12.648 87.0213 12.584 86.808 12.456C86.5947 12.328 86.424 12.1573 86.296 11.944C86.1787 11.72 86.12 11.4747 86.12 11.208C86.12 10.952 86.1787 10.7173 86.296 10.504C86.424 10.28 86.5947 10.104 86.808 9.976C87.0213 9.848 87.2667 9.784 87.544 9.784C87.8213 9.784 88.0667 9.848 88.28 9.976C88.4933 10.104 88.6587 10.28 88.776 10.504C88.904 10.7173 88.968 10.952 88.968 11.208C88.968 11.4747 88.904 11.72 88.776 11.944C88.6587 12.1573 88.4933 12.328 88.28 12.456C88.0667 12.584 87.8213 12.648 87.544 12.648Z" fill="white"/>
</svg>
