<svg width="322" height="68" viewBox="0 0 322 68" fill="none" xmlns="http://www.w3.org/2000/svg">
<path d="M153 15C154.65 15 156.3 15 158 15C158 20.61 158 26.22 158 32C160.64 32 163.28 32 166 32C166 30.68 166 29.36 166 28C166.99 28 167.98 28 169 28C169 26.68 169 25.36 169 24C170.65 24 172.3 24 174 24C174 25.32 174 26.64 174 28C173.01 28 172.02 28 171 28C171 29.32 171 30.64 171 32C170.34 32 169.68 32 169 32C169 32.66 169 33.32 169 34C169.66 34 170.32 34 171 34C171 34.66 171 35.32 171 36C171.99 36 172.98 36 174 36C174 38.97 174 41.94 174 45C172.35 45 170.7 45 169 45C169 42.36 169 39.72 169 37C165.37 37 161.74 37 158 37C158 39.64 158 42.28 158 45C156.35 45 154.7 45 153 45C153 35.1 153 25.2 153 15Z" fill="#FCFFFB"/>
<path d="M302 24C303.65 24 305.3 24 307 24C307 29.61 307 35.22 307 41C310.3 41 313.6 41 317 41C317 35.39 317 29.78 317 24C318.65 24 320.3 24 322 24C322 33.9 322 43.8 322 54C320.35 54 318.7 54 317 54C317 51.03 317 48.06 317 45C313.7 45 310.4 45 307 45C307 44.34 307 43.68 307 43C306.01 43 305.02 43 304 43C304 42.34 304 41.68 304 41C303.34 41 302.68 41 302 41C302 35.39 302 29.78 302 24Z" fill="white"/>
<path d="M201 24C206.28 24 211.56 24 217 24C217 25.32 217 26.64 217 28C211.72 28 206.44 28 201 28C201 29.32 201 30.64 201 32C206.28 32 211.56 32 217 32C217 33.65 217 35.3 217 37C211.72 37 206.44 37 201 37C201 38.32 201 39.64 201 41C206.28 41 211.56 41 217 41C217 42.32 217 43.64 217 45C211.72 45 206.44 45 201 45C201 44.34 201 43.68 201 43C200.34 43 199.68 43 199 43C199 42.34 199 41.68 199 41C198.01 41 197.02 41 196 41C196 36.71 196 32.42 196 28C196.99 28 197.98 28 199 28C199 27.34 199 26.68 199 26C199.66 26 200.32 26 201 26C201 25.34 201 24.68 201 24Z" fill="white"/>
<path d="M244 24C247.63 24 251.26 24 255 24C255 24.66 255 25.32 255 26C255.99 26 256.98 26 258 26C258 26.66 258 27.32 258 28C258.66 28 259.32 28 260 28C260 33.61 260 39.22 260 45C258.35 45 256.7 45 255 45C255 39.39 255 33.78 255 28C251.7 28 248.4 28 245 28C245 33.61 245 39.22 245 45C243.02 45 241.04 45 239 45C239 39.39 239 33.78 239 28C239.99 28 240.98 28 242 28C242 27.34 242 26.68 242 26C242.66 26 243.32 26 244 26C244 25.34 244 24.68 244 24Z" fill="white"/>
<path d="M177 15C178.65 15 180.3 15 182 15C182 17.97 182 20.94 182 24C185.63 24 189.26 24 193 24C193 25.32 193 26.64 193 28C189.37 28 185.74 28 182 28C182 32.29 182 36.58 182 41C185.63 41 189.26 41 193 41C193 42.32 193 43.64 193 45C189.37 45 185.74 45 182 45C182 44.34 182 43.68 182 43C181.34 43 180.68 43 180 43C180 42.34 180 41.68 180 41C179.01 41 178.02 41 177 41C177 32.42 177 23.84 177 15Z" fill="white"/>
<path d="M283 15C284.65 15 286.3 15 288 15C288 17.97 288 20.94 288 24C291.3 24 294.6 24 298 24C298 25.32 298 26.64 298 28C294.7 28 291.4 28 288 28C288 32.29 288 36.58 288 41C291.3 41 294.6 41 298 41C298 42.32 298 43.64 298 45C294.7 45 291.4 45 288 45C288 44.34 288 43.68 288 43C287.01 43 286.02 43 285 43C285 42.34 285 41.68 285 41C284.34 41 283.68 41 283 41C283 32.42 283 23.84 283 15Z" fill="white"/>
<path d="M134 24C139.28 24 144.56 24 150 24C150 25.32 150 26.64 150 28C144.72 28 139.44 28 134 28C134 32.29 134 36.58 134 41C139.28 41 144.56 41 150 41C150 42.32 150 43.64 150 45C144.72 45 139.44 45 134 45C134 44.34 134 43.68 134 43C133.01 43 132.02 43 131 43C131 42.34 131 41.68 131 41C130.34 41 129.68 41 129 41C129 36.71 129 32.42 129 28C129.66 28 130.32 28 131 28C131 27.34 131 26.68 131 26C131.99 26 132.98 26 134 26C134 25.34 134 24.68 134 24Z" fill="white"/>
<path d="M225 24C228.63 24 232.26 24 236 24C236 25.32 236 26.64 236 28C232.7 28 229.4 28 226 28C226 33.61 226 39.22 226 45C224.02 45 222.04 45 220 45C220 39.39 220 33.78 220 28C220.99 28 221.98 28 223 28C223 27.34 223 26.68 223 26C223.66 26 224.32 26 225 26C225 25.34 225 24.68 225 24Z" fill="white"/>
<path d="M264 24C265.65 24 267.3 24 269 24C269 29.61 269 35.22 269 41C272.3 41 275.6 41 279 41C279 42.32 279 43.64 279 45C275.7 45 272.4 45 269 45C269 44.34 269 43.68 269 43C268.01 43 267.02 43 266 43C266 42.34 266 41.68 266 41C265.34 41 264.68 41 264 41C264 35.39 264 29.78 264 24Z" fill="white"/>
<path d="M120 24C121.65 24 123.3 24 125 24C125 29.61 125 35.22 125 41C124.34 41 123.68 41 123 41C123 41.66 123 42.32 123 43C122.01 43 121.02 43 120 43C120 43.66 120 44.32 120 45C116.7 45 113.4 45 110 45C110 43.68 110 42.36 110 41C113.3 41 116.6 41 120 41C120 35.39 120 29.78 120 24Z" fill="#FCFFFB"/>
<path d="M91 24H101V26H104V28H106V41H104V43H101V45H91V43H88V41H86V15H91V24ZM91 28V41H101V28H91Z" fill="white"/>
<path d="M269 41C272.3 41 275.6 41 279 41C279 42.32 279 43.64 279 45C275.7 45 272.4 45 269 45C269 43.68 269 42.36 269 41Z" fill="white"/>
<path d="M110 41C113.3 41 116.6 41 120 41C120 42.32 120 43.64 120 45C116.7 45 113.4 45 110 45C110 43.68 110 42.36 110 41Z" fill="white"/>
<path d="M264 15C265.65 15 267.3 15 269 15C269 16.65 269 18.3 269 20C267.35 20 265.7 20 264 20C264 18.35 264 16.7 264 15Z" fill="white"/>
<g clip-path="url(#clip0_22_50)">
<path d="M0 32C6.93 32 13.86 32 21 32C21 33.65 21 35.3 21 37C14.07 37 7.14 37 0 37C0 35.35 0 33.7 0 32Z" fill="#90DE6F"/>
<path d="M42 32C48.93 32 55.86 32 63 32C63 33.65 63 35.3 63 37C56.07 37 49.14 37 42 37C42 35.35 42 33.7 42 32Z" fill="#90DE6F"/>
<path d="M29 0C30.65 0 32.3 0 34 0C34 6.93 34 13.86 34 21C32.35 21 30.7 21 29 21C29 14.07 29 7.14 29 0Z" fill="#8FDE6D"/>
<path d="M29 47C30.65 47 32.3 47 34 47C34 53.6 34 60.2 34 67C32.35 67 30.7 67 29 67C29 60.4 29 53.8 29 47Z" fill="#8DDD6B"/>
<path d="M13 52.0225C13 50.3656 14.3206 49 15.9775 49C17.6344 49 19 50.3206 19 51.9775C19 53.6344 17.6794 55 16.0225 55C14.3656 55 13 53.6794 13 52.0225Z" fill="#83DA5D"/>
<path d="M13 16.0225C13 14.3656 14.3206 13 15.9775 13C17.6344 13 19 14.3206 19 15.9775C19 17.6344 17.6794 19 16.0225 19C14.3656 19 13 17.6794 13 16.0225Z" fill="#83DA5D"/>
<path d="M44 52.0225C44 50.3656 45.3206 49 46.9775 49C48.6344 49 50 50.3206 50 51.9775C50 53.6344 48.6794 55 47.0225 55C45.3656 55 44 53.6794 44 52.0225Z" fill="#83DA5D"/>
<path d="M44 16.0225C44 14.3656 45.3206 13 46.9775 13C48.6344 13 50 14.3206 50 15.9775C50 17.6344 48.6794 19 47.0225 19C45.3656 19 44 17.6794 44 16.0225Z" fill="#83DA5D"/>
</g>
<defs>
<clipPath id="clip0_22_50">
<rect width="63" height="68" fill="white"/>
</clipPath>
</defs>
</svg>
